<svg xmlns="http://www.w3.org/2000/svg" viewBox="0 0 60 15" fill="none" data-inject-url="http://127.0.0.1:8001/img/ai21.svg" class="icon-svg timestamp-icon"><g clip-path="url(#a)"><path d="m16.6 23.4-.9-2.7h-8l-1 2.7H1.1L9.3.6H14l8.3 22.8h-5.8ZM11.7 7.1l-2.8 9.4h5.5l-2.7-9.4ZM23 .6h5.3v22.8H23V.6ZM29.8 18.8a9.2 9.2 0 0 1 3.2-5.4 20 20 0 0 1 2.4-1.8 73.9 73.9 0 0 0 3.4-2.2c.4-.3.7-.7 1-1.2.2-.5.4-1 .4-1.5 0-1-.3-1.6-.8-2-.5-.4-1.2-.6-1.8-.6a3 3 0 0 0-2.1.8c-.6.5-.8 1.3-.8 2.5h-5.3c0-1 .2-2 .5-2.9.4-.9 1-1.6 1.6-2.3.8-.7 1.6-1.2 2.6-1.5a10.8 10.8 0 0 1 6.4-.1c1 .2 1.8.6 2.5 1.2.7.5 1.3 1.3 1.7 2.1.5 1 .7 2 .6 3.1 0 1-.2 1.8-.6 2.6-.4.8-.9 1.5-1.5 2.1-.6.6-1.2 1.2-2 1.6a46 46 0 0 0-5 3.6c-.3.3-.5.7-.6 1l-.2 1.3h9.8v4.2H29.3c0-1.5.2-3.1.5-4.6ZM46.2 4.6c1 0 1.8 0 2.7-.2a4 4 0 0 0 1.7-.8c.4-.3.6-.7.8-1.2l.2-1.8h4.7v22.8h-5.4v-15h-4.7V4.5Z"/></g><defs><clipPath id="a"><path fill="#fff" transform="translate(1)" d="M0 0H117.8V24H0z"/></clipPath></defs></svg>