<svg viewBox="0 0 500 500" xmlns="http://www.w3.org/2000/svg"><g stroke-linecap="round"><path style="opacity:1;fill-rule:evenodd;stroke:none;stroke-width:1;stroke-linecap:butt;stroke-linejoin:miter;stroke-miterlimit:4;stroke-dasharray:none;stroke-dashoffset:0" vector-effect="non-scaling-stroke" d="m-190 161 32.9-32 47.4 38.9-32.7 43.7L-230 261z" transform="matrix(1.68694 0 0 1.50744 388 106.7)"/><path style="opacity:1;fill-rule:evenodd;stroke:none;stroke-width:1;stroke-linecap:butt;stroke-linejoin:miter;stroke-miterlimit:4;stroke-dasharray:none;stroke-dashoffset:0" vector-effect="non-scaling-stroke" d="m-65 42.4 32.7 28-77.5 97.5L-157 129l91.3-87.3z" transform="matrix(1.68694 0 0 1.50744 388 106.7)"/><path style="opacity:1;fill-rule:evenodd;stroke:none;stroke-width:1;stroke-linecap:butt;stroke-linejoin:miter;stroke-miterlimit:4;stroke-dasharray:none;stroke-dashoffset:0" vector-effect="non-scaling-stroke" d="m46.9-67.7-2.2 2L-65.8 41.7l33.5 28.8 95.8-122c2-2.3 3-5 2.8-8.1 0-3-1.3-5.7-3.5-7.8a11.2 11.2 0 0 0-7.9-3.3c-3-.1-5.7 1-8 3z" transform="matrix(1.68694 0 0 1.50744 388 106.7)"/></g></svg>