<svg width="179.2" height="179.9" viewBox="0 0 47.4 47.6" xml:space="preserve" xmlns="http://www.w3.org/2000/svg"><path fill="currentColor" d="M29 0c-5.5 0-11-.2-16.6.3a13.8 13.8 0 0 0-2.7 27c3.2 1.1 6.6 1.2 9.9.3 3.4-.8 6.6-2.5 10-3.7 4.6-2 9.4-3.8 13.6-6.8 3.8-2.7 4.4-8.4 2-12.1A9.6 9.6 0 0 0 36.5.2L29 0zm7.5 25.6c-3.3.2-6.3 1.8-9.4 3.1-2.4 1-4.9 2.2-6.2 4.5-2.1 3.1-2 7.4.3 10.4 1.9 2.7 5.2 4 8.4 4 3.1 0 6.2.1 9.3-.4 5.8-1.3 9.8-7.9 8-13.6-1.2-4.5-5.7-8-10.4-8zM8.2 30.4A8.3 8.3 0 0 0 0 38.5c-.3 4.1 2.7 8.3 6.9 8.9 4.2.8 9-2.7 9-7.1.2-2.4.1-5.2-1.7-7a8.1 8.1 0 0 0-6-2.9z"/></svg>