<svg version="1.0" width="274.7" height="309.3" viewBox="0 0 206 232" xmlns="http://www.w3.org/2000/svg"><path d="M127.3 1c-7 0-14 .7-19.3 2a77.7 77.7 0 0 0-50 40.5C53.2 53 0 200.9 0 204.5c0 1.4.6 2.5 1.3 2.5 1.5 0 10.1-8.7 23.1-23.7 10.1-11.6 14.2-15.1 15.7-13.6 1.4 1.4-.7 7.2-10.1 29.3-9.7 22.6-11.5 27.9-10 29.4 1.8 1.8 4.6-.3 29.1-22.2 15.6-14 21.9-17.9 21.9-13.5 0 .9-2.9 7.8-6.4 15.4-7.5 16-9.4 21.5-7.9 23 2.6 2.6 3.3 2.1 71.9-52.7 27-21.5 51.4-41.5 54.2-44.3a81.6 81.6 0 0 0 20.8-36.6 92.3 92.3 0 0 0-.4-38.8A78.3 78.3 0 0 0 146.6 3c-5.3-1.3-12.3-2-19.3-2zm-.7 14.1c5.7 0 11.5.5 16.6 1.8a64.6 64.6 0 0 1 46.3 46.2c2.2 8.3 2.3 22.5.1 30.9a65.4 65.4 0 0 1-33.6 41.9 60.8 60.8 0 0 1-32.1 6.8 64.6 64.6 0 0 1-53.8-35.9 55.9 55.9 0 0 1-6.4-28.3 63.6 63.6 0 0 1 62.9-63.4zm.6 16c-4.6 0-9.2.5-12.2 1.3a48.3 48.3 0 0 0 2.8 93.5 48.3 48.3 0 0 0 54.7-64 49.1 49.1 0 0 0-33-29.5c-3.1-.8-7.7-1.2-12.3-1.2zm4.8 11.3c3.9 0 7.8.9 11.5 2.5a29 29 0 0 1 17.3 24.9c.5 7.6-1.1 14-4.9 19.2-5.1 7.1-10.8 8.5-19.9 5.1A130 130 0 0 1 106.1 74c-4.6-6.4-3.7-13.9 2.8-21.3A30.3 30.3 0 0 1 132 42.4z"/></svg>