<svg version="1.0" width="17" height="22" viewBox="0 0 679.5 881.7" xmlns="http://www.w3.org/2000/svg"><g><path d="M465.2 686.6H311.8c-1.3-52.2 2.3-108.8 37-150.4 23.2-33.7 63.4-47.7 92.5-75C479 432 507.7 383 499.6 333.1c-2.8-43.3-38.3-78-79.3-85-50.5-11.9-111.7 2.3-139.6 50.2-16.7 25.8-27.1 57.3-22.8 88.4l-174.6 1.5c.2-71.4 3.9-151.2 55.2-206.1 46.5-56 114.2-93 186.3-98.3 92-7.8 193.5-4.4 270.3 54.2A225.3 225.3 0 0 1 691 301.5c10.4 65-13.7 131.8-55.4 180.6-35.4 39.7-82.9 64.3-123.6 97.3-32.7 25.7-48.6 65.6-46.8 107.2z" style="stroke-width:.905819" transform="translate(-49 -55.6)"/><path d="M483.5 847.7a94 89.6 0 1 1-188.1 0 94 89.6 0 1 1 188 0z" style="stroke-width:1.10768" transform="translate(-49 -55.6)"/></g></svg>