<svg xmlns="http://www.w3.org/2000/svg" width="128" height="128"><path d="M126.7 23.9c-1.4-.7-2 .6-2.8 1.3l-.7.7c-2 2.1-4.3 3.5-7.3 3.3-4.5-.2-8.2 1.2-11.6 4.5-.7-4.1-3-6.6-6.6-8.2-1.9-.8-3.8-1.7-5.1-3.5-1-1.3-1.2-2.7-1.6-4.1-.3-.9-.6-1.7-1.6-1.9-1-.1-1.5.7-1.9 1.5-1.7 3-2.3 6.4-2.2 9.8.1 7.7 3.3 13.8 9.8 18.1.7.5.9 1 .6 1.7l-1.4 4.5c-.3 1-.7 1.1-1.7.7a29.5 29.5 0 0 1-9.3-6.3c-4.6-4.4-8.7-9.3-13.8-13a61 61 0 0 0-3.7-2.6c-5.3-5.1.7-9.3 2-9.8 1.5-.5.6-2.3-4.1-2.3-4.6 0-9 1.6-14.3 3.7l-2.5.7c-5-1-10.3-1.1-15.4-.5-10 1-18 5.8-24 14C.5 45.8-1.2 57 .8 68.4a49.5 49.5 0 0 0 18 30.2A47.9 47.9 0 0 0 53 110c7.9-.5 16.7-1.5 26.6-10 2.5 1.3 5.1 1.8 9.5 2.2 3.4.3 6.6-.2 9-.7 4-.8 3.7-4.5 2.3-5.1-11.5-5.4-9-3.2-11.2-5 5.8-6.9 14.6-14 18-37.3.3-1.9 0-3 0-4.5 0-1 .2-1.3 1.3-1.4 2.9-.3 5.7-1.1 8.2-2.5 7.5-4 10.5-10.8 11.2-18.8 0-1.2 0-2.5-1.3-3.1ZM61.7 96c-11-8.8-16.5-11.6-18.7-11.5-2.1.1-1.7 2.5-1.3 4a15 15 0 0 0 2 4c.6.9 1 2.2-.6 3.2-3.6 2.2-9.8-.7-10.1-.9a46.4 46.4 0 0 1-17.6-17.6 53.9 53.9 0 0 1-7-24c0-2 .6-2.7 2.6-3a25 25 0 0 1 8.2-.3c11.3 1.7 21 6.8 29.1 14.8 4.7 4.6 8.2 10 11.8 15.4a73.8 73.8 0 0 0 18 19.2c-4.3.5-11.5.6-16.3-3.3Zm5.4-34.3a1.6 1.6 0 0 1 2.2-1.6c1 2 1 2.4.6 2.7-.3.3-.7.5-1.2.5a1.6 1.6 0 0 1-1.6-1.6Zm16.6 8.5c-1 .4-2.1.8-3.2.8-1.5 0-3-.4-4.2-1.3-1.5-1.3-2.5-2-3-4-.1-1.1 0-2.2.1-3.2.4-1.8 0-2.9-1.3-3.9-1-.8-2.2-1-3.6-1A3 3 0 0 1 67 57c-.6-.3-1-1-.6-1.9l1-1.1c2-1 4.1-.7 6.2 0 1.8.9 3.2 2.3 5.3 4.3 2 2.4 2.5 3 3.6 4.8 1 1.4 1.8 2.9 2.4 4.6.4 1 0 1.8-1.3 2.4Zm0 0"/></svg>