<svg class="logo" width="36" height="31" xmlns="http://www.w3.org/2000/svg"><path d="M34 1.7A13.5 13.5 0 0 0 27 0a30.8 30.8 0 0 0-17 6.2c-6.8 5.2-8.7 11.5-7 14.8-1.9 3-3 6.2-3 10C3.4 24.4 5.5 19 16.6 10.2c-3.2.7-8.7 4-12.4 8.8-.3-2.8 2-7.5 7-11.4l2-1.4c-.5 1.7-.4 1.3-1.5 3.6 1.7-1.5 2.7-2.5 4.3-5.2 2.1-1 4.3-1.8 6.4-2.2-.3 1.2-1 3.2-1.9 4.8 0 0 2.3-.5 4.3-.4-1.1 1.1-2 2.4-3 3.7-1.3 1.8-2.7 3.6-4.4 5.3l-.6.6c-2.7-.3-4.5.7-6.1 2.5 1.3-.6 3-1.1 4.1-.8-2 1.7-5.2 3.8-7.8 3.7l-1 1.7c4.2 1 9.5-3.3 12.6-6.4 1.9-1.8 3.3-3.7 4.7-5.5 2.7-3.8 5.2-7 10.5-8.2l2.2-.5Z" class="logo-mark"/></svg>