<svg width="332.6" height="307.2" viewBox="0 0 88 81.3" xmlns="http://www.w3.org/2000/svg"><path style="display:inline" d="M40.9.1A38.8 38.8 0 0 0 5 38.8a38.8 38.8 0 0 0 1.8 11.5 7.1 7.1 0 0 1 1.9.3A6 6 0 0 1 10 47v-.1a34.8 34.8 0 0 1-1-8 34.8 34.8 0 0 1 69.5 0 34.8 34.8 0 0 1-1 7.6l.5.5a6 6 0 0 1 1.3 3.7 7.1 7.1 0 0 1 1.4-.2 38.8 38.8 0 0 0 1.8-11.6A38.8 38.8 0 0 0 40.9 0Zm7.1 73a34.8 34.8 0 0 1-8 .1 17 17 0 0 1-2.3 3.7 38.8 38.8 0 0 0 12.6 0 17 17 0 0 1-2.2-3.7zM74 45c1.6 0 3 .7 4 1.9a6 6 0 0 1 1.3 3.7 7.1 7.1 0 0 1 2-.3c1.5 0 3 .6 4 1.7a5.8 5.8 0 0 1 .7 7 5.3 5.3 0 0 1 1.8 2.8c.3 1 .5 2.8-.8 4.8a5.2 5.2 0 0 1 .4 5c-1 2.3-3.6 4.1-8.5 6-3.1 1.3-6 2-6 2A44.3 44.3 0 0 1 62 81.4c-5.8 0-10-1.8-12.4-5.4-4-5.6-3.4-10.9 1.7-15.9 2.7-2.8 4.6-6.8 5-7.7.8-2.7 2.8-5.7 6.2-5.7a5.7 5.7 0 0 1 4.6 2.5c1-1.3 2-2.3 2.9-2.8a7.4 7.4 0 0 1 4-1.3zm0 4c-.6 0-1.2.2-1.9.7a47.6 47.6 0 0 0-7.7 11.1 2.4 2.4 0 0 1-2.2 1.3c-1.5 0-2.7-1.5-.1-3.4 3.9-3 2.5-7.8.7-8a1.5 1.5 0 0 0-.3 0c-1.7 0-2.4 2.9-2.4 2.9s-2.2 5.5-6 9.3c-3.8 3.7-4 6.8-1.2 10.8 1.8 2.7 5.4 3.6 9.1 3.6 3.8 0 7.8-1 10-1.5 0 0 13.4-3.8 11.7-7-.3-.5-.7-.7-1.3-.7-2.4 0-6.7 3.5-8.6 3.5-.4 0-.7-.2-.8-.6-.8-2.9 12-4 11-8.2-.2-.7-.8-1-1.5-1-3.1 0-10.2 5.5-11.7 5.5h-.2c-.7-1.3-.3-2.1 4.9-5.3 5.2-3.1 8.9-5 6.8-7.3-.3-.3-.6-.4-1-.4-3.2 0-10.7 6.8-10.7 6.8s-2 2.1-3.2 2.1a.7.7 0 0 1-.7-.3c-.9-1.5 8-8.3 8.6-11 .3-2-.3-2.9-1.4-2.9zm-6.7-15a3.3 3.3 0 1 0 0-6.5 3.3 3.3 0 0 0 0 6.5zm-46.5 0a3.3 3.3 0 1 0 0-6.5 3.3 3.3 0 0 0 0 6.5zM14 45c-1.7 0-3.1.7-4.1 1.9a6 6 0 0 0-1.3 3.7 7.1 7.1 0 0 0-2-.3c-1.5 0-3 .6-4 1.7a5.8 5.8 0 0 0-.7 7 5.3 5.3 0 0 0-1.8 2.8c-.2 1-.5 2.8.8 4.8a5.2 5.2 0 0 0-.4 5c1 2.3 3.6 4.1 8.5 6 3.1 1.3 6 2 6 2A44.3 44.3 0 0 0 26 81.4c5.8 0 10-1.8 12.4-5.4 4-5.6 3.4-10.9-1.7-15.9a27.3 27.3 0 0 1-5-7.7c-.7-2.7-2.8-5.7-6.2-5.7a5.7 5.7 0 0 0-4.6 2.5c-1-1.3-2-2.3-2.9-2.8a7.4 7.4 0 0 0-4-1.3zm0 4c.5 0 1.1.2 1.8.7C18 51 22 58 23.6 60.8c.5 1 1.4 1.3 2.2 1.3 1.5 0 2.7-1.5.1-3.4-3.9-3-2.5-7.8-.6-8h.2c1.7 0 2.4 2.9 2.4 2.9s2.2 5.5 6 9.3c3.8 3.7 4 6.8 1.2 10.8-1.8 2.7-5.4 3.6-9.1 3.6a42 42 0 0 1-10-1.5S2.7 72 4.4 68.8c.3-.5.8-.7 1.3-.7 2.4 0 6.7 3.5 8.6 3.5.4 0 .7-.2.8-.6.8-2.9-12-4-11-8.2.3-.7.8-1 1.5-1 3.1 0 10.2 5.5 11.7 5.5h.2c.8-1.3.4-2.1-4.9-5.3-5.2-3.1-8.9-5-6.8-7.3.3-.3.6-.4 1-.4 3.2 0 10.7 6.8 10.7 6.8s2 2.1 3.2 2.1c.3 0 .6 0 .7-.3.9-1.5-8-8.3-8.5-11-.4-2 .2-2.9 1.3-2.9zM36 51a8.7 8.7 0 0 1 5.3-4.5c.4-.1.8.6 1.2 1.3.4.7.8 1.4 1.3 1.4.4 0 .9-.7 1.3-1.4s.9-1.4 1.3-1.2a8.6 8.6 0 0 1 5 4.1c3.7-3 5.1-7.7 5.1-10.7 0-2.3-1.6-1.6-4-.3h-.2a20 20 0 0 1-8.8 2.7 20 20 0 0 1-8.8-2.7c-2.6-1.2-4.2-2-4.2.3 0 3 1.5 8 5.5 11zm19-21.7c1.3.4 1.8 3 3.1 2.4a5 5 0 1 0-6.7-2c.6 1 2.5-.8 3.7-.4zm-23.5 0c-1.3.4-1.8 3-3 2.4a5 5 0 1 1 6.7-2c-.6 1-2.6-.8-3.7-.4z"/></svg>