<svg width="682.7" height="682.7" xmlns="http://www.w3.org/2000/svg"><g><path style="stroke:none;stroke-width:1.33333" d="M171.3 47.3v4c12.5 9 4 25 5 37.4.5 8.6 4.4 15 3 24-9.7-1-17 6.6-24 12.6-15.6 13.6-27.2 32.5-43.1 45.3-6.3 5-14.8 3.2-22.2 2.5-13.7-1.3-27.9-.3-41.3-3.1-16 28-27.5 57-36 88 13.7 10.8 35 39.1 53.3 38.7l-1.3 6.6-5.4-2.6 2.7 14.6-4-2.6-1.3 6.6h6.6L62 344.7h-1.3l-5.4-8c1.3 13.5 7 37.8 2.6 50.5-2 6-8.7 10.1-13.2 14-10.6 9.2-21 18.8-32 27.5L38 498h1.3l1.4-10.7 17.3 28-2.7-5.3 30.7 4 1.3-6.7 8 5.4-2.6-5.4c34-5.8 39.5 35.3 66.6 47.5 6.4 2.9 16 .6 22.7-.8-.6 3.6-2 9.1 1.2 12 5 4.1 11.8-3.7 17.4-1.8 14.2 4.8 19.7 29 37.4 16.5 3.7 14.8 13.7 53.5 34.5 53 8.3-.2 11-15 12.7-21 5.5-19 5.1-42 30.1-42.7 20.7-.5 53.1-5.3 69 11 10 10.2 8.7 27.4 15.8 39.7 2.4 4.2 6.7 11.5 12.5 11 5.5-.4 9.2-8.1 11.6-12.4a94.9 94.9 0 0 0 11.1-42.6c21.5 13.5 26.8-8.6 45.4-15 5.7-2 13.9 4.9 18.6 1 3.5-2.7 0-8.4-1.3-11.4 11.5 1.2 36.7 2.2 46.7-3.9 13.8-8.4 22-24.8 33.3-36l-1.3-5.4 41.3 1.3c1.3 7.8 6.3 8 13.3 8v-6.6l5.4 5.3h2.6c11-19 20.6-39.3 27.6-60 2.2-6.5 6.8-15.7 5.8-22.7-2.7-18-34.2-27.2-42.5-42.7-4.5-8.4 0-24 .8-33.3 1.5-17.4-3-34.6-2.5-52 .5-18.7 33.7-29.7 42.8-44.6 4-6.5-1.4-17-3.5-23.4-6.5-19.6-14-42.9-26.6-59.7-4.7-6.4-10.9-4.8-17.9-4.4-12.3.7-33.6 6.4-45 1.6-8-3.4-13.4-14-19-20.1-12.9-14-27.3-25.6-41.1-38.5-16-14.8 2.8-45.3-3.7-63.7-3-8.7-20.7-14.3-28.5-17.7-13.5-6-27.2-11.4-41.3-15.8-5.3-1.6-11.7-4.6-17-1.6-16 9.4-22.5 34-39.5 41.8-9.5 4.4-27.9-1.2-38.2-1.7-15-.8-36.5 6.8-50.5 2.3-6-2-10.3-8.6-14.2-13.1-9.2-10.6-19-20.9-27.3-32-31 6.8-58 21.6-86.7 34.6m297.4 37.4V86h-4l4-1.3m4 0-1.4 1.3 1.4-1.3M219.3 86l-1.3 1.3 1.3-1.3m192 44-1.3 1.3 1.3-1.3m160 136H570a99.2 99.2 0 0 0-22.7-26.2c-6.8-5-14.5-8.5-22.6-10.9-64.2-18.5-94.3 58.6-101.4 109.1-4.6-12.7-2.6-28-2.6-41.3V218c0-12.8.2-30.4 10.8-39.4 11.5-9.7 35-9.3 49.2-7.7 50 5.6 90.6 43.3 90.6 95.1m-300 53.3H270c-8.7-49.1-41.6-109.8-100-92.3-8.2 2.5-16 6.5-22.7 11.8a96.3 96.3 0 0 0-21.3 25.9c-14.8-48.8 53.4-80.7 90.7-85 10-1.3 23.6-4.2 33.2 0 11.7 5 16.9 23 19.5 34.3a285 285 0 0 1 2 105.3m-46.7-96c5 14 18 23.4 25.4 36 7.4 12.5 9.7 32 22.6 40-4-24.8-18.5-72.1-48-76m200 77.4c10.8-7.5 13.6-23.6 19.8-34.7 7.7-13.8 22-25 26.8-40-27.9 4.5-44.2 50.1-46.6 74.7m-220-54.7v1.3l-45.4 8c5.3-20.6 30.8-15.4 45.4-9.3m340 22.7c-18.3-11-31.4-18.7-53.4-18.7 19-16.3 44.6-1 53.4 18.7M482 247.3l-5.3 8 5.3-8m-330.7 9.4v9.3h-2.6l2.6-9.3m33.4 10.6c-10.2 28.4-20.4 64.8-3.8 93.4 23.4 40.2 69.2 19.8 79.8-17.4l-37.4 12c7.6-30 6.7-51.1-5.3-80l-4 1.4 2.7-9.4c25.1 13.2 33.4 41.5 45 65.4 6 12.3 12.3 26.5 2.6 39.2-4.7 6-15.2 9.5-22.3 11.6-21 6-64 7-81-8.7-13.4-12.1-18.5-33.6-24.3-50.1l-4 1.3-5.4-17.3c24.3-2.8 34-33.6 57.4-41.4m328 1.4a151 151 0 0 1 33.4 28c7 7.2 13.2 14.8 23.9 13.3l1.3 1.3-5.3 24h-1.3L562 326h-1.3c-8.8 20.9-12.8 50.6-37.4 58.5-21.7 7-56.5 8-77.3-1.7-11-5-22.6-13.2-20.7-27.5 1-6.8 6.7-14 10-20h1.4c0 8.2-.8 16.6 3 24 22.1 42.1 74.6 26.6 82.3-16l-33.3 8c2.8-20.5 10.6-60.1-10.7-73.3l-2.7 6.7H474c3.2-14.4 15.7-19.8 27.7-8.8 7 6.3 9.7 16 12 24.8.6 2.2 2.5 14 7.2 10.3 9-7-8.4-33.5-8.2-42.3m-297.4 42.6c-13.7 4.2-8.1 19.6-8 30.7-7.5-6.4-6.6-16.3-6.6-25.3-18.1-3-5.5-24.7 8.7-13.6 2.8 2.2 4.4 5.1 6 8.2m261.3 1.4v2.6c-13 5.2-9 15.4-6.7 26.7a66.9 66.9 0 0 1-17-26.8c-1.5-8.4 8.4-10.2 14.3-7.9 3.3 1.3 6.3 3.5 9.4 5.4m-413.4 2.6-1.3 1.4 1.3-1.4m-6.6 13.4 4 2.6V330l-4-1.3m18.6 180v4H74l1.3-4m349.4 62.6a95 95 0 0 1-10.7 48c-9.4-5.8-23.3-33.7-13.4-43.9 5.5-5.7 16.9-4 24-4m-145.3 4-8 46.6c-16.3-9.2-22.8-30.3-24-48l32 1.3m124 17.4v10.6h1.4z"/><path style="fill:#fff" d="M171 314.2c1.5 2.6 3.5 5 6 6.4 15.6 8.6 10 7 18.6 9 3 .7 6 .4 9 .5l1.5.3c-12.3-7.7-8.5-9.4-13.5-6.8l-2.4 1.6c-4.5 2.7-9.2 5-13.8 7.7-5 2.8-5.8 3.3-10.7 6.3l-8.4 5.4-2.8 1.9-1.6 1.1c-.2.3-.6.9-.3 1 4.8 2.6 9.9 4.6 14.8 6.8 12.7-5.6 24.5-13 36.2-20.3 8.8-5.9 17.5-12 26.1-18 .2-.2.6-.3.4-.4-4.7-2.5-9.1-5.7-14.2-7.1-1.2-.4-2.1 1.3-3.2 2-4.9 3.3-9.5 6.9-14.2 10.5-9.5 7.4-18 15.8-26 24.8-6.3 7.6-8.1 8.2 10.3 13.4 1.8.5 3.3-1.6 5-2.5 5.7-3.3 9.5-5.8 15.2-9.3 13.2-8.6 26-18 37.9-28.2l3.1-2.7 2.4-2.2 1.6-1.5c.2-.3.5-.8.3-1-14.8-8-10.2-9.4-18-5.2a338.5 338.5 0 0 0-32.7 22.2 611.9 611.9 0 0 0-31 26.1l-3 2.6c-5.3 5.6 8.2 7.6 14.4 9 2 .6 3.8-1.5 5.6-2.4 5.1-2.3 9.6-4.5 14.7-7 11-5.7 22.4-11.1 33.3-17.2 5.5-.6 14.2-1.4-14.2-6.8-1.7-.3-2.8 2.1-4.3 3.1l-17.4 13.3c-.9.8-2 1.5-2.6 2.5-.3.5-.6 1.3-.1 1.6 5 2.6 10.3 5.3 16 6.4 1.6.4 3.1-1.4 4.7-2.2 4.9-2.5 7-3.8 11.8-6.6l5.8-3.5c4.5-2.8 9-5.5 13.3-8.5.7-.4 2.6-1 2-1.4-4.9-3-10.4-4.7-15.5-7-11.7 6-23 13-34.3 19.7-6.6 4-13.3 7.7-20.1 11.1-9.4 4.9-10 3.8 8 11.4.9.4 1.8-.6 2.6-.9l3-1.1c7-3.2 14-6 21.1-8.6 4.1-1.5 8.1-3.2 12.4-4.2 1.6-.4 2.8-.6 4.5-.8-1.4-2.8 3.2.9 2.5.5-4.5-2.3-8.5-5.6-13.3-7.2-.9-.3-1.4 1.3-2.1 1.9-3 2.4-3.5 2.7-6.7 5-6.2 4.4-12.7 8.6-19 12.8-4.5 5-2.6 2 11.8 10 .7.4 1.5-.2 2.2-.4l8.9-2.5c5.2-1.7 10.7-2.5 16.2-3.4 4.6-.9 9.1-1.9 13.6-3.3 3.1-1.1 6.2-2.2 9.2-3.8 1.6-1 3.5-1.6 5.1-2.6l1.8-1.2c1.7-1.3 2.6-2.3 3.6-4.3.8-2.1 1-4.3 1.2-6.5v-5.3c.5-6.8 3-1.8-13.2-9.6-.5-.2-1 .4-1.3.7l-1.7.9c-3.7 2.3-7.2 5-10.8 7.5-3.1 2.3-6.6 4-10 5.7-2.8 1.3-5.6 2.3-8.2 3.7 4.3 2.9 8.3 6.3 12.8 8.7.7.3 1.3-.7 2-1 4.3-1.8 1.6-.5 6.4-2.8l7.5-3.7c2.8-1.5 5.7-2.8 8.5-4.2.3-.2 1.3-.3 1-.6-12.7-8.7-8.8-10-15-6.9L220.7 357a183.7 183.7 0 0 1-38.6 14.8c-.6.4-4 .4-4.5.7-.2.3-.7.7-.5.9 4.3 2.9 9 5.3 13.4 7.9 3-.3 6-.7 9.1-.9 3.6-.3 7.1-.1 10.6-.4l7-.5c2 0 4-.3 6-.6s3.9-.9 5.8-1.5c1.7-.6 3.5-.5 5.2-.7 2.6-.3 5-1 7.5-1.6 1.8-.4 3.7-.7 5.5-1.2.7-.2.7-.5.6 0-15-10.2-8.4-9.6-17.2-6.6l-5.8 2.2c-2.2 1-4.5 1.4-6.8 2-1.9.7-4 .7-5.8 1.4-1.4.7-3 .8-4.5 1-1.7.4-3.5.5-5.2.6-1.9.1-3.8.3-5.6.9 0 0-.1-.1 0 0 4.3 2.6 8.5 5.7 13.1 8 .5.3 1-.6 1.5-.9a181.4 181.4 0 0 0 23.6-16.7l-12.9-8a131 131 0 0 1-16.2 12l-5 3.3-2.2 1.2c-.5.3-1.9.5-1.5.9 10.5 9.7 7.6 11.3 12 8.7 1.8-.4 3.7-.5 5.5-.6l5.2-.7c1.6-.2 3.2-.6 4.7-1.2 2-.4 4-.6 5.8-1.3 2.3-.6 4.7-1.2 6.9-2.2l5.7-2.2c8.6-3.2 5.7-1.8-7.4-10.8-.6.4-1.4.5-2 .6l-4.4 1c-2.4.5-4.9 1.2-7.4 1.4-1.8.2-3.7.4-5.4 1a40.3 40.3 0 0 1-11.5 1.8l-7 .5c-3.6.1-7.1.1-10.7.4-3 .3-6 .7-9.1.9 4 2.7 8.3 5.1 12.3 8 .2.2-.5.4-.5.7l4.6-.8c5.2-1.4 10.2-3 15.2-5 8-2.8 16-6 23.6-10 6.8-3.6 13.7-6.8 20.5-10.4 6.2-3.5 3.6-1.2-10.2-9.7-.4-.1-.7.4-1 .5l-5.2 2.6-3.3 1.7-11 5.3-2.8 1.1c-.6.2-2 0-1.6.4 3.7 3.2 8 5.7 12 8.6 2.6-1.4 5.4-2.4 8-3.7 3.6-1.7 7-3.5 10.2-5.9 3.6-2.4 7-5 10.8-7.3l1.5-.8c.4-.2 1.4-.1 1.1-.4-13.8-10.1-11.5-12.3-12.5-6v5.2c-.1 2-.3 4.1-1 6a8.4 8.4 0 0 1-3.2 3.7c-2.1 1.4-4.5 2.4-6.8 3.6a76.9 76.9 0 0 1-22.5 6.7c-5.5 1-11 1.9-16.3 3.6l-6.1 1.7-2.6.5c-.6 0-2-.5-1.7-.2 11.5 9.3 8.4 11.7 12.6 7.5 6.5-4.2 13-8.3 19.2-12.8 2.5-1.8 4.4-3.1 6.7-5.1.8-.8 3.1-1.4 2.4-2.3-6.3-8.2-8-10.5-14.6-9.6-6 1-11.6 3-17.1 5.3-7.1 2.6-14.1 5.4-21 8.5l-3 1.2c-.9.2-3.1 0-2.6.7 11.9 13.2 7 11 12 8.2l5-2.7c6.9-3.5 13.6-7.3 20.2-11.2 11.3-6.7 22.5-13.6 34.2-19.5-3.3-3.2-6.2-6.9-10-9.5-.6-.4-1.2 1-1.8 1.4a155 155 0 0 1-3.5 2.3l-15.6 9.6c-4.4 2.5-7.3 4.2-11.7 6.4-1.6.8-5.5.7-4.7 2.1 2.1 3.9 7 5.3 10.3 8.3.2.2-1 .4-.8.2.8-1 1.7-1.6 2.6-2.4 5.8-4.5 11.5-9 17.4-13.3 1.4-1 5-1.5 4.3-3-5.8-12.4-6.4-11.8-11.2-9.7-11 6-22.2 11.5-33.4 17.2l-14.5 7c-1.9.7-6.3.3-5.6 2.2 1.7 4 6.4 6.2 10.1 8.7 1.5 1 .9-9.4 3.8-3.8 10.1-9 20.3-17.7 31-26a327.3 327.3 0 0 1 32.6-22c7.4-3.8 4-.9-8.2-10h.3l-1.6 1.5-2.3 2-3.1 2.8a351.9 351.9 0 0 1-37.9 28c-4.3 2.7-10.4 6.7-15 9.2-1.6.7-5.6.6-4.7 2 2.4 4 7 6.3 11 8.4 2 1 .9-9 4-5.2a198.6 198.6 0 0 1 40-35c1-.6 3.8-1 3-2-8.3-11.4-7.4-11.8-11.5-8.8a901 901 0 0 1-26.1 18c-11.7 7.3-23.4 14.6-36 20.1 3.8 2.8 7.6 5.3 11.3 8.2.1.2-.7.6-.5.5.6-.3 1-.7 1.5-1.1 3.7-2.5 7.4-4.9 11.2-7.2 5-3 5.5-3.4 10.7-6.3 4.6-2.6 9.3-5 13.8-7.8 1-.5 1.7-1.2 2.6-1.8.5-.6 2-1.2 1.5-1.8-3.9-3.4-8.6-5.8-13-8.3-.5-.3-1.1-.1-1.7-.2-3 0-5.9 0-8.7-.7-6.9-2-3.2-1.2 7.6 5.5L189 325c-1.1-.8-2.4-2-3.2-3l-1-1.4-13.8-6.3z"/><path style="fill:#fff" d="m232.7 344-.5-12.7c-.2-7-1.8-4.8-13.3-10.6l-3.8 3.6c-2 1.9-4 3.8-6.3 5.4l-3 1.8c-2 .7-4.1 1.7-6.3 1.7l-1.2-.2-1.5-.3c-1.8-.6-3.7-1.5-5.5-2.3-2.1-1-2.2-1-4.5-1.8-4.4-1.6-9-2.5-13.7-3-.5-.2-1-.2-1.6-.3-.2-.1-1-.7-.7-.6 4.2 2.5 8.4 5.2 12.7 7.6.2 0 .3-.2.5-.3l1.4-1 2-1.2c5.3-2.8 10.8-5.4 16.2-8.1 4.8-2 9-4.8 13.4-7.6 2.7-1.5 5.2-3.2 7.8-4.8 1.2-1 3.6-1.5 4.6-2.5l.4-.6c-4.3-2.9-8.4-6-12.8-8.7-.2-.1-.6.3-1 .4l-6.3 2.1c-4.3 1.7-8.5 3.7-12.7 5.6-4.8 2-9.5 4.3-14.2 6.7-4 2-7.7 4.3-11.5 6.7l-4.7 3.1-1.2.7c-.7.5-1.5 1.3-2.2 2-1.4 1.5-3.5 3.5-3.2 5.8 0 .3.3.7.4 1 4.6 2.7 9 5.5 13.8 8 .4.2.9-.1 1.3-.2a24 24 0 0 0 6.6-2.1c4.7-2.1 9.1-4.7 13.5-7.4a299 299 0 0 0 22.3-15.8l5.8-4.3c1.5-1.1 2.8-2.5 4.2-3.7.5-.6 1.6-.9 2-1.6 2.9-5.2-9-6.2-13-8.5a25.6 25.6 0 0 0-6.4 5.3c-.4.5-5.6 6.1-4.8 6.7 4.2 3 8.7 5.6 13.1 8.4 3.7-1.1 6.3-3.9 9-6.5l1.8-2 .4-.3c-4.4-2.2-8.6-4.9-13.2-6.8-.3-.2-.2.7-.4 1l-.7 1.5a24 24 0 0 1-3.2 4.5l-.8.9v-.1l13.1 7.2c1.5-2.4 3.5-4.4 5-6.8 1-2.4 1-4.9 0-7.2-2.7-4.9-12.6-7.8-14.8-8.9-.3-.1-3.5 1.2-3.9 1.3-4.4 2-8.7 4.4-13.2 6.5-4.2 2-8.5 4-12.8 5.8-2.8 1.2-5.7 1.9-8.6 2.6-2.8 1-5.7 1.5-8.6 2.2-2.3.6-4.6 1.3-6.7 2.5 0 0-.5 0-.3.1 4.2 2.9 8.3 6 12.8 8.3.5.3.9-.5 1.3-.7 3-1.7 5.8-3.6 8.7-5.5 5.8-4 11.7-7.7 17.7-11.3 2.9-1.4 5.7-2.8 8.7-4l8-3 5.7-1.8 4.3-.8 2.9-.2h.6l.2.2c-12.5-7.6-11.4-11.8-15.4-3.6-.9 2-1.9 4-3.3 5.9-1.6 2-4.1 2.9-6.4 3.9-5.9 2-6.4-.3 11.7 7.8.4.2.5-.6.8-1l2.5-2.3c2.1-2 3.7-3.9 4.6-6.6.5-2.2.5-4.4.5-6.7v-5.9c-.1-1.3-.6-2.4-1.3-3.6-11.8-7.4-10.4-9.6-19.5-6.6-3 1-5.7 2.5-8.5 3.8-2.8 1.2-5.5 2.7-8.3 4-2.8 1.5-5.7 2.6-8.5 3.9l-9 4c-2.5 1.2-5.1 2.5-7.6 4l-1.6 1c-3.5 4.2 8 6.4 13.2 8.8.3.1.7-.3 1-.5 1.6-.8 3.3-1.4 4.8-2.3l2.4-1.5c2.3-1.5 4.3-3.6 6.4-5.5 1.5-1.3 2.7-2.8 3.4-4.6.2-1.3.8-2.8.3-4.1l-.5-.7c-4.6-2.5-9-5.2-13.7-7.6H179c4.2 2.8 8.5 5.5 12.8 8l.8-.6c1-1 1.8-2.3 2.4-3.6.3-.5.4-1.3 1-1.7l.3-.1.4-.3c5.2-2.6 10.3 3.1-12-8.2-.4-.2-.6.4-1 .6-2 1.3-4 2.9-6 4.5-1.7 1.5-3.2 3.3-4.9 4.8-4.5 4.8 2 3.8 12.7 9.2a149.4 149.4 0 0 0 12-6.2 44 44 0 0 1 5.5-2.5l5.6-1.8c1.7-.6 3.5-.8 5.3-1.1 1.5-.4 3-.4 4.5-.5h4.8c.8.2.5 0 1 .5l-11.8-9.3h-6.4c-1.5 0-3 .3-4.5.6-1.8.4-3.7.6-5.4 1.3l-5.6 1.9c-2 .8-3.8 1.6-5.6 2.6-2.7 1.4-5.3 3-8 4.3-.7.4-2 1-2.8 1.2-.3.2-1.3.1-1 .3 13.7 11 8.5 11.6 12.6 7.4 1.6-1.5 3-3.2 4.7-4.7l6.1-4.4c.3-.2 1.2-.4 1-.7-7.9-6.5-8.4-11.3-13.5-8-1.1.8-1.7 1.7-2.2 3a8 8 0 0 1-2 3l-1 .8c4 3 8.2 5.8 12.3 8.7.2.1.6 0 .8.2l-12.4-7.1c.1 0 1 0 1.2.3.4.4-.1 2.1-.2 2.7a9.4 9.4 0 0 1-3 4c-2 1.8-3.9 3.8-6.2 5.2a50 50 0 0 1-7 3.6c-5.6 1.8 0-.3 11.6 7.6.4.3-1.6 1.3.1.2l.8-.5c2.5-1.4 5-2.6 7.7-3.8l8.9-4c2.9-1.3 5.7-2.5 8.5-4l8.3-4c2.8-1.2 5.5-2.7 8.4-3.6 1.2-.3 2.5-.8 3.9-.8.8 0 .8 0 1.5.4l-12.3-7.4c.9.7 1.4 1.7 1.6 2.8.3 1.9 0 3.9.1 5.8 0 2 .1 4.2-.3 6.3-.6 2.4-2.3 4.2-4.2 5.8-.3.4-3.6 3.5-3.5 3.7 10.3 9 8 10.6 14 8.2 2.5-1.2 5-2.4 6.8-4.6a30 30 0 0 0 3.5-6.1c3.8-8 6-2.9-9.9-13-1.3.3-2.7 0-4 .4l-4.3 1c-2 .5-3.9 1.1-5.8 1.8l-8.1 3.2a88 88 0 0 0-8.7 4.1c-6.1 3.6-12 7.3-17.8 11.3l-6.4 4.1-2.3 1.3c-.3.2-1.4.3-1 .5 11.2 9.2 7.8 10.8 12.6 8.4 2-1 4.2-1.7 6.4-2.2 2.9-.7 5.8-1.3 8.6-2.2 3-.7 6-1.6 8.7-2.8a227 227 0 0 0 13-5.9c4.3-2.1 8.6-4.4 13-6.3.9-.3 1.7-.7 2.6-.7.3 0 1 .3.8.1-18.7-11.5-15.8-8.7-10.9-6.5 1.2 1.6 1.3 3.9.6 5.8-1.5 2.5-3.6 4.5-5 7 4.2 2.8 8.3 5.7 12.7 8.4l.2-.3a34.3 34.3 0 0 0 4.2-5.8l.8-1.5c.2-.4 1-1 .6-1.3-12-9.4-10-11.7-15.4-6-1.8 1.9-4.3 4.9-7 5.3l-.8-.2 12 8c.2 0-.1-.3 0-.4l.8-1.2a73 73 0 0 1 3.6-4.3c1.6-1.6 3.5-3.7 5.8-4.3-4.2-2.5-8.6-4.8-12.7-7.6-.2-.2.4-.4.5-.6l-.3.2-1.6 1.3c-1.4 1.2-2.7 2.6-4.2 3.7l-5.8 4.2a290.7 290.7 0 0 1-22.2 15.7c-4.3 2.6-8.7 5.2-13.4 7.2-1.6.6-3.2 1.3-5 1.5-5 .6-13.7-7.4 9.8 7l-.7-.1c-1.2-1 1.8-4 2.4-4.6 2.5-2.1 5.3-3.7 8-5.5a197.3 197.3 0 0 1 25.6-13.3c4.2-1.8 8.3-3.8 12.6-5.4 1.6-.6 3.3-1.3 5-1.6l1.1-.2c.2 0 .4.2.5.3l-12.1-8.4-4.6 2.5c-2.6 1.6-5.1 3.3-7.8 4.8a92.8 92.8 0 0 1-13.4 7.4c-5.4 2.8-11 5.4-16.3 8.3-1 .7-2.6 1.7-3.5 2.5-.4.4-1.4.9-1 1.2 7.4 6.5 8.6 8.4 15 9.3 4.7.6 9.2 1.7 13.6 3.3 3.8 1.6 7.6 3.6 11.8 4 2.8 0 5.4-.9 8-2.2 3.5-2 6.7-4.6 9.5-7.5l2.5-2.3.2.2-12.3-7.8.3.8v1.4l.6 12.6 13.4 6.9z"/><path style="fill:#fff" d="m185.9 280.3 6.4-3.2c1.3-.7 2.5-1.2 4-1.4h31.1l.5.1-12.1-9h-27.5c-1.5 0-3 0-4.5.3-1.4.4-2.8 1-4.1 1.7-2.2 1-4.4 2-6.5 3.2l12.7 8.3zM517.5 337.2c-2.6 4-5 8.2-7.4 12.3a24.5 24.5 0 0 1-7.1 7.5c-2.7 2-5.2 4.2-7.6 6.5-1.4 1.4-3 2.6-4.5 3.8-1.3.9-2.4 1.7-3.8 2.3-5.1-1.8-1-.4 12.4 7v-.1l.6-.8c.7-.8 1.4-1.3 2.3-2 4.7-3.7 10-6.4 15.2-9.4 2-1.3 4.2-2.3 6.2-3.8.3-.3.6-.5.8-.9.2-.2.6-.5.3-.7-4.3-2.9-8.8-5.4-13.3-8-3.5 1.6-6.8 3.9-10.2 5.8a70.6 70.6 0 0 1-8.7 4.1 47.4 47.4 0 0 0-7.5 4.4l-6.4 4.3a4.6 4.6 0 0 0-2.6 3.3c.8 7.4 12 9.3 18.5 9 2.5-.2 5-.5 7.4-1.5 2-.6 2.8-1.9 3.8-3.5l3-6.3c1.3-2.8 3.1-5.3 4.8-7.8 1.2-1.6 2.5-3.2 3.5-5 1.8-6.1-7.8-6.7-13.3-9.6a27.5 27.5 0 0 0-12 2.7 58.2 58.2 0 0 0-8 4c-2.5 1.3-4.8 3-7.2 4.5-1.3 1-2.6 2-3.7 3.4l-5 4.6a90 90 0 0 0-4.2 4.8c-3.6 5.3 3.8 5 12.4 9.7.3.2.7-.4 1.1-.5l3.3-1.5 6-3.6 3.3-2 1.1-.3c5.2 1.9.4.2-12-6.7-.2 0 .5.1.5.3 0 .2-.5.7-.6.8l-3.3 3c-1 .7-1.7 2-2.6 3-.5.4-1.9 2.7-.9 3.3 4.5 2.6 9.2 5 13.8 7.5a15 15 0 0 0 6.5-1l.6-.4c.2-.2.9-1.5.6-1.7-10.8-7-8.8-7.4-15-7.5-2.2-.2-4.3.1-6.4.7-1.5.2-2.9.7-4.3 1-1.5 0-2.8.5-4.2.7-1.3.1-2.8.4-4.1 0h-.6c-.4-.2-1.7-1-1-.7 21 11.9 15.6 9 11.1 6.3-1.5-1-1.6-2.4-1.3-4.1.8-3.1 3.2-5.2 5.6-7.2 3.3-3 7.2-5 11-7 4.2-2.1 8.4-4.3 12.5-6.6 2.8-1.8 5.7-3.5 8.4-5.5 1-1 3.6-2.2 4-3.5l.3-1.2c-4.5-2.4-9-5-13.7-7.2-.4-.1-.7.3-1 .5-2.1.8-4 1.7-6 2.7-3.7 2-7.5 3.8-10.8 6.3l-.6 1c-1.3 5.3 13.8 8.9 14.3 9 .6.4 1.4 0 2-.2 1.8-.2 3.2-.6 5-1a64 64 0 0 0 12.9-5.7c2-1 3.8-2.1 5.9-2.9 1.7-1 3.7-1.7 5.6-2.4l.9-.2c.1 0 .5.2.3.2-4.3-2.5-8.5-5.3-13-7.4-.4-.2-.6.5-.8.8l-2.4 2.6a329 329 0 0 1-9.9 9.8c-3.3 3.2-6.2 6.6-9.4 9.9l-6.3 5.9c-1.9 1.7-3.8 3.4-5.9 5-1 .6-1.8 1.6-3 2h-.4c-.2 0-.3-.5-.2-.4l13 7.7c.5-.8 1.4-1.3 1.8-2.1 2.5-4.8-11-8.3-13.7-9.9-3-.1-6 .3-9 .6-3.4.3-6.7.5-10 1-1.5 0-3 .6-4.4.6h-1c-.2 0-.7-.5-.5-.4l12.5 7.1-.3-.2c-.8-1.1.5-3 1-3.9 1.5-2.9 3.7-5.3 6-7.7 3.2-3.5 6.9-6.5 10.5-9.6 3-2.5 6.2-4.8 9.2-7.4 2.4-2 5.1-3.7 7.8-5.4 7.7-5.4 5.2-2.2-9-11l-11 7.1a63.5 63.5 0 0 0-9.8 7.7c-1.9 1.7-3.6 3.6-5.4 5.4a30.3 30.3 0 0 1-9.7 7.3c-1.5.9-2.9 1.9-4.6 2.3l-6.9 2.2c-.2 0-1.4.3-1.8 0-.1 0-.4-.6-.2-.5 4.2 2.5 8.3 5.2 12.6 7.6v-.5l.6-1c2.4-3.2 5-6.1 7.8-9 2.7-3.3 6-6.2 9-9.1l8.4-8.1c2.4-2.3 5-4.2 7.5-6.2a32 32 0 0 1 7.3-3.6c2.6-1 5.3-1.8 8-2.7 6.9-2.2 5.2-.7-10.7-8.9-.4-.2-.7.4-1.1.6l-1.7 1c-5.1 3-10.2 6-15.5 8.6l-11.2 6.2c-2.7 1.2-5.4 2.7-8 4l-5.5 3c-1.7 1.2-3.6 2.2-5 3.6-1 .8-2.1 2.3-3.3 2.6 1.3-5.3-.2.1 13 7.3.1.1.2-.3.3-.5l.3-.6.2-.2c-4.4-2.7-8.9-5.1-13.3-7.7-1.5.9-2.8 2-4.3 3-4.9 3.8-8.1-1.4 11.4 8 .2 0 0-.5.1-.7l.4-1c1-2.2 2.1-4.4 3.4-6.5 1.8-2.6 4.3-4.8 6.6-7 3-2.6 6.3-4.7 9.5-7 2.5-1.9 5.3-3.3 8-5 2.4-1.3 5-2.4 7.6-3.4 3.6-1.3 7.3-2 11-3 3.4-1 6.8-2 10.3-3.2 1.6-.5 3.1-1 4.7-1.7l.6-.3-.1.4c-4.3-2.8-8.4-6-12.9-8.4-.3-.2-.7.4-1 .6-2.3 1.3-4.8 2.5-7.2 3.7-4.4 1.7-8.7 3.6-13 5.5-4.1 1.7-8 3.8-12 5.8l-8.3 3.6a50 50 0 0 0-6.9 3c-1.6 1-2.9 2.4-4.5 3.3-1.2.6-3 2.2-4.3 1.8-2.8-4.5-.2-.1 12.4 7l-.3-.4c-.4-.8-.3-1.8-.3-2.7.2-1.9 1.3-3.6 2.5-5 1.1-1.2 2.6-1.7 3.9-2.7 1.5-.8 2.8-1.8 4.1-2.8l5.2-3.5 7.7-4.4a70 70 0 0 1 8.5-3.9c3.5-1.4 7.3-2.1 11-3 2.2-.5 4.3-1.2 6.3-2.1 1.8-.6 3.6-1.5 5.4-2.2l7.1-2.3c2.2-.7 4.4-.7 6.6-1 2-.3 3.9-.8 5.8-1.3 2.2-.9 4.6-1.5 6.8-2.2 2.3-.8 3.5-2.5 4.3-4.6.5-1.8.7-3.1-.5-4.6-4 .9-9.5-8-15.2-8-1 0-1.8.3-2.7.5-2.1.7-3.9 2.2-5.7 3.5-1.3 1-2.7 1.8-4 2.7l-1 .9c-.2.1-.7.4-.5.5 4.4 2.9 9 5.3 13.6 8 2.8-1.1 5.4-2.8 7.9-4.6 1.3-1.2 2.7-2.3 3.7-3.8.7-1 .6-2.1.2-3.3l-13.7-6.3c.4.6.9 1.3.5 2-1 1.3-2.3 2.3-3.5 3.3a27.7 27.7 0 0 1-7.6 4.1c4 2.9 7.8 5.8 11.8 8.5.2.1.3-.3.4-.4 1.6-1.3 3.3-2.3 4.9-3.5 1.7-1.1 3.4-2.6 5.5-3l1.6-.2c4.6.3 16.9 11-10.2-6.6 1.7.7 1.6 1.2 1.2 3-.5 2-1.5 2.8-3.5 3.4l-6.8 2.1c-1.8.5-3.7.9-5.7 1.1a34 34 0 0 0-6.7 1.3l-7.2 2.4-5.4 2.2c-2 .8-4 1.5-6.1 1.9-3.8.9-7.6 1.7-11.2 3.2-3 1.2-5.8 2.5-8.6 4l-7.7 4.5c-1.8 1.1-3.5 2.4-5.3 3.6a66 66 0 0 1-4 2.8c-1.5 1-3.1 1.6-4.2 3a14.5 14.5 0 0 0-3 6c-.4 6.7 2.6 13.8 14 11.7 1.7-.5 3.2-1.5 4.7-2.4 1.5-1 2.9-2.3 4.5-3.2 2.2-1.2 4.5-2 6.7-3 2.8-1.1 5.7-2.3 8.4-3.6 4-2 7.9-4 12-5.8l13-5.5 5.8-3 1.5-.8c.3-.2 1.2-.3 1-.5-3.8-3.3-8-6-12-9-1.2 1.2-4 1.5-5.5 2.2l-10.3 3.2c-3.7 1-7.5 1.7-11 3-2.7 1.1-5.4 2.3-7.9 3.7-2.7 1.6-5.4 3.2-8 5-3.2 2.4-6.6 4.6-9.6 7.2-2.4 2.3-4.9 4.6-6.8 7.4a56.8 56.8 0 0 0-3.6 6.8l-.7 2c11.1 8.2 9.3 11.2 14.9 7 1.3-.9 2.7-2 4.1-2.7-4.1-2.8-8.2-5.6-12.4-8.2l-.5.8c-.1.2-.6.5-.4.7 11.9 9.5 8.4 12 12.8 8.4a40.4 40.4 0 0 1 8.3-6.2l5.5-3c2.7-1.3 5.3-2.8 8-4l11.3-6.2c5.2-2.7 10.3-5.7 15.4-8.7l1.7-.9c.4-.2 1.5-.3 1.2-.6-10.8-9.3-7.9-10.1-14.6-7.9-2.7.9-5.4 1.7-8 2.8a33 33 0 0 0-7.5 4c-2.6 2-5.2 4-7.6 6.2-2.7 2.7-5.4 5.5-8.3 8.1-3.2 3-6.3 6-9.2 9.2-2.7 3-5.5 6.1-8 9.4l-.5 1.2c-.2.4-.8 1-.5 1.2 8.7 6.8 8.8 9.6 15.5 8l6.9-2.2a70 70 0 0 0 9.8-5.7c1.8-1.3 3.4-2.8 4.9-4.5l5.3-5.4c3-2.7 6.3-5.3 9.8-7.4 3.6-2.3 7-4.8 10.8-6.9-14-9.4-8.7-10.8-16.4-5.6-2.6 1.8-5.4 3.5-7.8 5.6-3 2.6-6.3 4.8-9.3 7.4-3.6 3.1-7.2 6.2-10.5 9.7-2.4 2.5-4.7 5-6.3 8.1-1 1.9-1.9 3.8-1.5 6 4.5 2.5 9 5.3 13.5 7.7.2.2 1.7 0 1.9 0 1.4-.2 2.9-.6 4.3-.7l10-1c2.8-.2 5.8-.7 8.6 0-4-2.4-8.1-4.6-12-7.2-.6-.3 1-.4.9 0-.5.9-1.5 1.4-2 2.3 11.6 8.7 9.3 12 16.5 6.3l6-5.1c2-2 4.3-3.9 6.3-6 3.1-3.2 6.1-6.6 9.4-9.8 3.4-3.2 6.6-6.5 9.9-9.8.2-.3 3.5-3.7 3.4-3.8-10-9-7.8-10.6-13.8-8.5-2 .7-3.9 1.5-5.7 2.4l-6 3a57 57 0 0 1-12.7 5.4c-1.6.3-3.1.7-4.8.8-.6 0-2.3-.3-1.8 0 3.7 2.8 8 4.7 11.7 7.3.3.2-.6.5-.8.4-.2-.1.2-.4.3-.6 3.3-2.4 7-4.2 10.6-6.1 1.5-.8 3-1.5 4.6-2l1.2-.5c.3 0 1.1 0 .9-.1-4.1-2.6-8.4-4.9-12.6-7.3l.7-.8-.1.2-.7.6-1.9 1.4-1 .8-8.4 5.4a331 331 0 0 1-12.4 6.4c-4 2.2-7.8 4.4-11.2 7.4a17.6 17.6 0 0 0-6.1 8l-.4 1.4c-.2 1.4.2 3.1 1 4.3l1.1.9c4.5 2.5 9.7 7.6 15.5 8.2 1.5 0 3-.1 4.4-.4a57 57 0 0 1 4.2-.8l4.3-1c2-.4 4-.6 6.1-.4 5.7.7 5.8 4.6-11-7-.4-.2.4-.6.6-.9h-.4c-2 .6-4 1-6 .4 4.1 2.4 8.3 4.6 12.3 7.1.2.2-.4.1-.6.2-.2 0-.3.2-.5.1-.1-.1.7-1.2.8-1.3.8-1 1.5-2 2.5-2.7 1.2-1 2.4-2 3.5-3.2.5-.8 1-1.5 1.2-2.4.7-5.5-9.3-9.8-14.6-8.3-3.7 1.6-6.8 4.4-10.5 6-.8.4-2.2 1.1-3.1 1.3-.3 0-.9-.3-.7-.1 19.7 13.7 9.4 11.9 12.6 7.3a73.7 73.7 0 0 1 27.7-20.7c2.6-1 5.3-1.9 8-2 .8-.1 1.7-.2 2.4 0 .3 0 1.1.4.9.2l-12.2-7.4c-.1-.1.3-.2.5-.1v.2c-1 1.8-2.3 3.3-3.4 5-1.7 2.5-3.6 5.1-5 7.9l-3 6.2c-.9 1.6-1.2 2-3.1 2.6-2.3.7-4.7 1-7.1 1.2-1.2 0-1.6 0-2.7-.2l-1.1-.2-.8-.4c12.2 7.5 17 7.1 11.8 7.5-.7-.7 1.5-1.8 1.9-2.1 2-1.5 4.2-2.8 6.3-4.3a46 46 0 0 1 7.4-4c3-1.4 6-2.7 8.7-4.3l3.8-2.3c1.6-1 3.3-2 5-2.8l1-.2-12.1-8c-.2.2-.4.5-.7.6-2 1.5-4 2.5-6.1 3.8-5.2 3-10.7 5.7-15.4 9.5-1.1 1-2.4 2-3.2 3.4-.2.4-1 1-.6 1.3 11.9 8.6 8.4 9.5 14 7.6 3.2-1.6 6-4 8.6-6.5 2.3-2.2 4.8-4.4 7.4-6.3 3-2.2 5.7-4.8 7.5-8l7.3-12.2-13-7.7z"/><path style="fill:#fff" d="M432.5 344.2c-.8 2-1 5-2.3 6.6 17.8 9 10.9 10.1 14.7 2.5 1-1.7 2.3-3.3 3.6-4.9l3.2-4.2 4.3-6.1 3.8-5.4c1.5-1.9 2.9-4 4.5-5.8 1.9-1.7 4-3.2 6.1-4.6 3-2.1 6.1-4 9-6.3 2.8-2 5.2-4.3 8-6.2 2.2-1.2 4.2-2.5 6.3-3.8 3-2 5.8-4.3 8.7-6.4a96 96 0 0 1 4.5-3.3c.3-.2.6-.5 1-.6l.2.2-13-7.4c-2.6 4-5.8 7.7-8.9 11.4a81.9 81.9 0 0 1-12.7 12.7c-6 4.7-8.3 2.7 10.6 8.8.7.2 1-1.2 1.4-1.8l4.2-4.5c2-2.3 4.4-4.4 6.6-6.5l5.6-5.2c2.5-2 4.9-4 7.7-5.3a34.5 34.5 0 0 0 11.8-4.9c1.4-1 2.8-2 4.3-2.6l.6-.3c.6-.3.6-.2 1.1-.6.5-.4.8-.8 1.3-1 5.2-5-8-9.8-13.3-10-2.5.5-4.7 1.7-6.9 2.8a9.1 9.1 0 0 0-5 4.5l-3.3 7.8c-2 6.4 5.5 6 13.2 9.8a177.8 177.8 0 0 0 14.8-8.8 7.6 7.6 0 0 0 2-4c.2-1.2 0-2.8-1.2-3.5-13.4-8-8.6-7-15-8.2-2.5-.5-5.1-.2-7.7.5-.6.2-1 .4-1.6 0-.2 0-.6-.4-.5-.3l12.7 7.3-.2-.3.1-.7a9.1 9.1 0 0 1 3.2-4c1-1 2.2-1.7 3.2-2.6.8-.4 1.5-1 2-1.8-10.4-6.6-10.6-10.3-16.4-5.4-1.4.8-2.6 1.8-4 2.7l-5 2.5c-2 .9-3.9 1.8-6 2.6-2.5 1.2-5.1 2.5-7.6 3.9-3.2 1.4-6.2 3.2-9.2 4.8-3 1.7-6 3.5-8.8 5.5-1.8 1.1-3.2 2.7-4.7 4.1l-1.8 1.8c-1.3 1.2-2.3 2.6-3.4 4a48.3 48.3 0 0 1-4.3 4.1 72.1 72.1 0 0 0-4.8 4.4c-1.1 1.3-1.8 3-2.6 4.5-.9 1.5-1.6 3.1-2.3 4.7l-1.7 3-1.5 2.8c-1 1.2-1.4 2.6-2.2 3.8-.8 1.1-1.3 2.5-1.7 3.8l-1.3 3.7s0-.1 0 0c15.3 8.4 10.6 11 15.9 3.6l6-8.5 5.6-8.4c1.3-2.2 2.6-4.3 3.7-6.5a41 41 0 0 0 2.7-5.3c.6-1.8 1.1-3.7 1.9-5.5.9-2.2 2-4.2 3.2-6.3l3-4.5 1.3-1.5c.9-1.3 2-2.3 3.2-3.5l2.9-2.7 3.3-3.1c1.4-1 2.8-2.1 4.3-3 1.6-1 3.4-1.6 5-2.6 1.6-.6 3.2-1 4.7-1.7 1.6-.6 3-1.7 4.6-2.5 1.2-.5 2.5-1 3.8-1.3 1.2-.2 2.4-.2 3.5-.2h2c.4 0 .5.1.9.3l-12.7-7.3c-.3.4.3 0 .2 0-.2.4-1.1.8-1.4 1-2 .8-3.9 1.6-5.9 2.2-2.3.9-4.9 1.3-7.1 2.4l-4.8 2.2c-2.2 1-4.1 2.6-6 4l-2.9 2.7c-.4.4-1 .7-1.5 1-2.6 1.9-5 4-7.4 6l-7.3 6a41.3 41.3 0 0 0-4 4.3c-1.2 1.3-2.3 2.6-3.3 4l-2.3 3.3c-.5 1-.9 2.2-1.2 3.3-.2 1.1-.7 2.2-1.2 3.2l-1.3 3.7-1.6 3.8-1.7 5-1.3 3.7c-.4 1-1 2-1.6 3l13.1 7.6c.6-1 1.3-2.1 1.7-3.2.5-1.3.8-2.6 1.4-3.9.4-1.6 1-3.2 1.6-4.8l1.6-3.9c.4-1.2 1-2.4 1.3-3.6.5-1 1-2.1 1.2-3.3l1-3 2.3-3.2c1-1.4 2.2-2.6 3.3-4 1.2-1.3 2.4-2.7 3.8-4 2.4-2 5-3.9 7.3-6 2.4-2 4.8-4 7.4-5.8l4.4-3.8c1.8-1.4 3.7-2.8 5.9-3.8 1.5-.8 3-1.4 4.7-2.1 2.3-1 4.7-1.4 7-2.3 2.1-.7 4.1-1.5 6-2.5 1.2-.8 2.4-1.6 2.4-3.1-11.8-7.2-8.8-8.2-16.2-8-1.3 0-2.6.2-3.8.6-1.3.5-2.8.8-4 1.6-1.5.8-2.8 1.8-4.4 2.3-1.7.5-3.3 1.1-4.8 1.9-1.7.8-3.4 1.6-5 2.6-1.7 1-3.2 2-4.6 3.3l-3.3 3-3 2.8c-1 1.2-2.2 2.3-3.1 3.6-1.8 2-3.2 4-4.5 6.3-1.2 2-2.4 4.2-3.3 6.4-.8 1.8-1.4 3.7-2 5.6-.6 1.7-1.5 3.4-2.5 5-1.1 2.2-2.4 4.3-3.6 6.5l-5.7 8.3c-2 2.8-3.8 5.7-6 8.5-5 7.2-3.5 3.6 10.2 11.8.1.1.2-.2.2-.3.6-1.2.9-2.6 1.4-3.9.3-1.1.8-2.3 1.4-3.4.8-1.2 1.3-2.6 2.2-3.7l1.7-3c.4-1.1 1-2 1.6-3 .7-1.6 1.4-3.2 2.3-4.7.7-1.4 1.4-2.9 2.4-4 1.5-1.6 3.1-3 4.8-4.4a48 48 0 0 0 4.3-4.4c1-1.3 2.2-2.6 3.4-3.8 2-2 4-4.1 6.4-5.7 2.7-2 5.6-3.7 8.6-5.3 3-1.6 6-3.4 9.2-4.8 2.5-1.4 5-2.6 7.6-3.8l6-2.7c1.8-.9 3.6-1.7 5.2-2.7l4-2.8c5.8-4.3 6.4-.2-9.9-9.5l.3-.5-.2.2c-.4.4-1 .6-1.5 1-1 .8-2.1 1.6-3 2.6-1.6 1.4-3 2.8-3.7 4.8l-.6 2c7.8 5.5 9.3 9.3 15.8 7.8a14 14 0 0 1 7.2.2c5.3 2.3 1.1.5-11-6.7l.7.4c.6.4 1.1.8 1.2 1.5a5 5 0 0 1-1.6 3.3c-1 1-2.4 1.7-3.6 2.4-2.3 1.4-4.6 2.8-7 4-.6.4-1.7 1-2.5 1.2-.2 0-1-.2-.8 0 4 2.7 8.1 5 12.2 7.6.1.1-.4 0-.4 0l.2-1 3.3-7.6c1.1-2 2.3-2.8 4.5-3.7 2-1 4-2.2 6.4-2 5.5 1.3-1.2-.2-11.8-7.1-.2-.2 1-1 .5-.5l-.3.3c-1 .7-1.8 1.4-3 1.8l-4.3 2.6c-2 1.2-4.1 2.4-6.4 3l-5.3 1.8a47 47 0 0 0-8 5.7 225 225 0 0 0-12.2 11.8c-1.4 1.6-3 3-4.3 4.7-.5.6-2.1 1.3-1.5 2 10.3 10.8 9 11.6 15.3 6.7 4.7-4 9.1-8 12.9-13 3.1-3.8 6.5-7.6 9.1-11.8-4.2-2.9-8.2-6-12.5-8.6l-1.6 1c-1.6 1-3.1 2.2-4.6 3.3-2.8 2.2-5.6 4.4-8.6 6.3l-6.3 4c-2.8 1.9-5.3 4.2-8 6.1-3 2.2-6 4.2-9 6.2-2.2 1.5-4.4 3.1-6.3 5-1.7 1.9-3 4-4.7 6l-3.7 5.3c-1.4 2-3 4-4.3 6.1l-3.2 4.2c-1.3 1.7-2.7 3.3-3.8 5.1-.6 1.3-1 2.4-1.4 3.8-1.4 5.9-.3.8 13 8.8 1.3-2 1.7-4.6 2.5-7l-13.3-7.2z"/><path style="fill:#fff" d="M445 346.7a104.5 104.5 0 0 1 6.3-12.6c1-1.2 1.8-2.6 2.8-3.9 1-1.2 1.6-2.6 2.7-3.7 1-1.5 1.8-3.3 2.6-5l2.4-4.7 3.5-5 2.8-4.1 3-4c1.5-1.3 3-2.5 4.2-3.9l3.2-2.7c1.3-1 2.4-2 3.8-2.9 1.3-.8 2.5-2 3.7-3 1.2-.7 2.1-1.8 3.2-2.8 1-1 2-2 3.2-2.8 1.5-1.3 3-2.5 4.4-4 1.3-1 2.7-1.7 4-2.6 1.2-1 2.7-1.4 4-2 1.6-.3 3-.8 4.5-1.3 1-.3 2.3-.8 3.3-.7.3 0 .4.2.6.3l-12.6-7 14 5.8-13.5-7.9c-1.5.1-3 .4-4.3 1-1.5.6-3 .9-4.5 1.4-1.5.6-3 1.3-4.3 2.3-1.4 1-2.8 1.7-4 2.9l-4.4 3.7-3.2 3c-1 .9-2 1.9-3.2 2.7-1.1 1-2.3 2-3.6 2.9-1.4.9-2.6 2-3.9 3l-3.3 2.9c-1.3 1.4-2.8 2.5-4.2 3.8a33 33 0 0 0-3.1 4.2l-2.8 4-3.6 5.3c-.8 1.6-1.7 3.1-2.4 4.8-.8 1.5-1.4 3.2-2.5 4.6-1 1.2-1.7 2.5-2.7 3.8l-2.9 4a102.7 102.7 0 0 0-6.5 12.8l13.3 7.4zM47.7 302.5l-.5 7.7c0 1.7-.6 3.2-1 4.9a38.3 38.3 0 0 0-.7 13.2l1.5 7c.4 2.2.6 4.4.8 6.6l.5 4.8.1 4.4c0 5.9-.8 1.8 13.7 7.3.2.1.4-3 .4-3.2l.1-7.4c0-2.4 0-4.7.3-7.1.3-3.1 1.1-6.2 1.9-9.2l1.8-7.2a41.2 41.2 0 0 0 2-12.8c0-1.4.3-2.8.5-4.2 0-1.1.2-2.2.6-3.2l.5-1-13.1-7.5-.6 1.1a8.2 8.2 0 0 0-.8 3.6l-.6 4.4a43 43 0 0 1-1.8 12.4l-1.8 7.2c-.8 3-1.6 6.2-2 9.3-.3 2.5-.5 4.9-.4 7.4v7.3l-.1 2c0 .3-.3.6-.1.8 4.3 2.7 8.8 5 13.2 7.5h-.2V353.4c-.1-1.6-.3-3.3-.6-4.9-.3-2.2-.2-4.4-.7-6.6l-1.5-7.1a30.4 30.4 0 0 1 .4-12.7c.4-1.7 1-3.3 1.1-5l.5-7.7-13.4-7zM638.5 529.5c.3-1.5.8-2.8 1.5-4.2l1.6-3.1a5 5 0 0 0 .6-2.6l-.1-.6c-12-7.3-9-7.8-16.5-7.8H621c-.4-.2-1.8.2-2.2 0 0 0-.1-.2 0-.2l12.7 8s-.2.2-.1.3l.3-.2c.9-.5 1.7-1 2.5-1.3 1-.5 2-1 3.2-1.2.1 0 1.5-.5 1.5-.2l-.2.3c-16-12-7.7-9.6-14.6-7.6l-3.4.8c-1 0-1.7.3-2.6.3-.6 0-1.1.1-1.6 0-.3 0-.5-.2-.8-.3l-.3-.1-.1-.3L628 517s-.6.7-.1.4l1.2-.7c.2-.2.5-.2.7-.3.7-.2 1.3-.5 2-.6h1.5l2 .3h1l1 .2-12.2-9-1.9-.2c-.7 0-1.4-.2-2.1-.1-.6 0-1.2 0-1.8.2l-2 .8c-.9.4-1.7.9-2.3 1.5-4.4 5.2 7 9.2 12.8 9.6l2.6-.1 2.6-.5c1.2-.3 2.5-.5 3.6-1 7.2-3-.8-4-9.7-10.2l-.3.2-.6.2-1 .3c-1.2.4-2.3 1-3.4 1.5l-2 1c-.3.2-.9.6-1.1.9l-.5.7c4.2 2.7 8.4 5.5 12.7 8.1.1.1.3 0 .4 0 .7-.2 1.4-.1 2.2-.1h4.5c.6 0 1.3 0 1.9.2l.5.1.4.3-12.5-7.4h.4c.7 0 0 1.2 0 1.4l-1.7 3.2c-.7 1.4-1.3 2.8-1.6 4.4l13.3 7.2z"/></g></svg>