<svg version="1.0" width="575.9" height="574.3" viewBox="0 0 431.9 430.7" preserveAspectRatio="xMidYMid" xmlns="http://www.w3.org/2000/svg"><g><path d="M2495 4698c-3-7-6-76-7-153l-3-140-115-5c-63-3-114-9-114-14 1-4 34-41 74-82l72-74-4-125-3-124-65-67c-74-75-224-205-257-223-27-14-54-3-89 38-22 26-24 26-156 26s-135 0-172 28c-52 40-60 67-41 135 9 30 14 56 11 59-7 7-47-16-77-43l-25-24-18 41c-10 23-39 56-68 80-63 49-110 53-160 12-58-49-67-65-68-118 0-49 2-53 63-113 62-61 63-62 118-62h56l72-80 73-80h51c61 0 66-3 92-53 11-21 46-69 77-105l58-67-320-3-321-2-55 26c-47 22-67 42-131 125-79 102-128 139-186 139-23 0-27-4-27-28 0-61 91-163 177-198 64-27 97-59 167-162 36-55 75-107 86-117 24-22 80-108 80-123 0-6-15-35-34-64-18-29-66-113-106-185l-72-133H969l2 80c1 44 0 83-4 86-3 3-31-8-63-24-67-33-197-82-220-82-9 0-34-13-57-29-36-25-55-30-129-36-77-6-87-9-92-28-13-48-15-47 157-47 90 0 232-3 315-7l152-6v-77h561l57 47c31 25 80 56 109 69 87 39 78 44-89 45-84 1-232 4-328 8l-175 6 55 28c30 15 63 27 72 27 16 0 58 44 58 61s92 150 113 164c12 7 57 17 100 21l77 7 62-43c49-35 72-45 115-48 31-3 53 0 53 5 0 11-93 102-156 152l-42 32-4 90c-2 50-9 94-16 101s-12 16-12 20 56 8 123 8c68 0 212 3 319 7l195 6-56 50c-72 65-71 63-71 125 0 29-7 69-15 89-8 19-15 37-15 39s28 4 61 4c57 0 65 3 110 41l49 41v139l55 51c106 98 95 132 95-292v-371l-45-42-44-42-2-194c-2-219-6-209 76-210 22-1 50-8 62-16 18-13 23-13 30-2 5 9 33 16 71 20 35 3 66 8 69 11s8 93 11 199l5 194-47 32-46 32v202c0 111-3 281-7 377l-6 174 39-31c107-86 106-85 111-143 7-89 10-96 65-134 43-29 62-36 101-36h48l-5-32c-3-18-8-64-10-103l-5-70-56-50c-30-28-55-53-55-55 0-3 78-3 172-2 95 2 237 1 315-3l142-7-14-29c-9-17-15-56-15-97 0-85-1-86-161-228-66-58-118-111-116-118 9-27 130 16 213 76 45 32 47 33 164 34l118 2 78-114c44-62 79-122 79-131 0-16-18-19-205-24-113-3-238-7-277-8-40 0-73-5-73-11 0-5 21-18 48-30 26-12 81-43 123-70l75-50h632l9 38 9 37 58 3c53 3 58 1 51-15-4-10-11-39-15-66-5-35-15-57-40-82-40-41-33-57 13-30 18 11 79 35 137 55l105 35 9 50c5 28 14 53 20 57s52 8 103 8h91l11 31c6 18 11 33 11 34 0 2-46 4-103 7-96 3-106 5-152 36-27 18-67 37-89 43-44 12-112 44-136 64-8 7-27 15-42 17-27 5-27 5-34-73l-7-79h-178l-57 118c-31 64-69 137-84 161-22 36-28 57-28 102 0 56 2 60 54 116 29 32 81 98 116 147 49 69 76 96 122 125 138 84 191 138 202 204l7 37h-41c-59 0-88-19-159-104-65-78-120-127-181-165-34-20-46-21-362-21-192 0-328 4-328 9s19 24 42 42c22 18 61 64 85 101 44 68 44 68 90 68 44 0 49 3 134 86 84 82 89 86 122 80 49-9 84 7 145 67 50 49 52 53 52 105 0 65-10 84-62 122-61 45-119 42-165-6-18-20-43-54-54-75-10-21-22-39-26-39-3 0-20 9-37 19-17 11-40 21-50 23-17 3-19-3-17-57 1-46-3-68-19-93-31-51-68-61-191-55-131 7-152 2-179-42-12-19-29-35-38-35-17 0-405 306-429 337-7 10-13 45-13 80v63h89c53 0 93 4 96 11 4 6-4 22-16 36-32 34-134 120-150 125-9 3-13 49-13 180-1 97-3 178-6 181s-33 8-67 12c-49 5-64 4-68-7z" transform="matrix(.1 0 0 -.1 -40 470.8)"/><path d="M2166 2764c-3-9-6-59-6-112v-97l-49-42-50-43h-291v-220h-25c-17 0-43-16-75-46-53-49-96-63-164-50-30 6-42 18-89 89-30 45-61 97-70 114-16 30-20 31-83 35-36 1-68 0-71-5-2-4 25-67 61-140 36-72 68-150 72-173 6-38 3-44-33-80-21-21-62-58-91-82s-61-60-71-80c-26-49-106-125-161-152-56-28-116-83-141-132-36-70-25-84 51-64 48 12 64 25 154 118 149 155 126 148 509 148 174 0 317-4 317-8 0-5-14-21-31-38-17-16-53-63-81-104l-50-75-57-6c-54-7-58-9-122-79l-67-73-58 6c-71 8-88 0-149-71-34-41-45-62-45-88 0-51 23-98 64-129 31-24 43-27 85-23 73 7 121 50 145 130 5 16 8 16 48-2 63-29 69-27 62 20-6 34-2 45 20 75 48 63 67 70 182 66 134-3 172 4 180 35 13 52 26 48 147-43 63-49 167-130 231-182l116-94V953l-86-6c-48-3-89-8-91-11-3-3 26-33 63-68 136-125 121-89 123-288 1-96 4-176 6-179 3-2 22 12 44 32 22 19 51 43 65 52 25 17 26 20 26 126v109h119c66 0 122 4 125 9s-33 46-80 90l-86 82 7 109c8 130 17 146 140 256 43 38 100 90 127 117 64 61 94 63 137 8l32-40 145-3 146-3 30-34c27-30 30-39 26-82-5-48-4-49 21-48 14 1 40 4 56 8 26 5 32 2 45-21 8-15 32-46 53-68 35-36 44-40 86-40 38 0 57 7 90 30 45 33 61 63 61 116 0 27-11 46-52 91-66 74-63 73-127 73-53 0-55 1-132 75l-79 75h-79c-51 0-82 4-89 13-5 6-15 38-22 70-8 38-22 70-41 92-30 33-30 34-9 45 14 8 116 10 328 8 355-3 350-2 442-101 150-161 142-154 194-161 64-10 75 1 51 55-26 56-86 105-154 125-45 13-65 26-101 67-25 28-75 83-111 122-37 38-86 101-109 140l-42 69 32 56c40 70 140 277 140 291 0 10-40 6-112-12-30-8-42-18-59-52-28-54-75-125-107-159-49-53-158-50-221 7-21 19-49 38-63 44-21 8-26 18-31 63-4 29-7 78-7 110v56l-160 4-159 3-39 38-39 38-7 112c-4 61-8 113-11 115-8 9-40-21-195-186-89-95-170-177-181-183-30-15-11-34-263 249-60 67-112 122-116 122s-11-7-14-16zm388-524c4 0 59 50 121 110 62 61 117 110 123 110 16 0 72-75 72-96 0-18-290-304-308-304-11 0-326 287-330 301-4 10 41 75 65 95 10 9 38-13 131-102 64-62 121-114 126-114zm-759-97c4-21 7-44 8-52 2-11 31-14 143-15l141-1 69-60c37-33 128-118 201-190l133-130v-230c0-218-4-275-19-275-3 0-35 24-71 53l-65 53-12 79c-6 44-12 81-12 81-1 1-17 14-37 29-25 20-54 30-93 34-42 5-55 10-52 21 2 8 7 51 12 95l8 80 51 47c29 25 49 51 45 57-4 7-93 11-268 12-144 1-295 4-335 8l-73 6 45 43c45 43 46 45 46 105 0 61 1 63 56 125 31 34 60 62 64 62 5 0 12-17 15-37zm1608-34 47-41v-82c0-69 3-86 20-104 12-12 25-22 31-22s8-4 5-9-71-12-150-16l-144-7-159-148c-87-81-187-171-223-201l-65-55-5-66c-3-45-11-72-24-87-36-39-125-103-136-96-6 4-10 92-10 254v248l103 99c108 106 215 206 285 267l42 37h149c158 0 161 1 161 51 0 29 20 23 73-22z" transform="matrix(.1 0 0 -.1 -40 470.8)"/></g></svg>