<svg version="1.0" width="467.9" height="578.6" viewBox="0 0 351 433.9" preserveAspectRatio="xMidYMid" xmlns="http://www.w3.org/2000/svg"><path d="M115.7 0c-7.7 0-18 2-26.5 5.7-37.6 16.5-60 66.6-62.9 141l-1 27.1 10.1-9.1c16.7-15 43.7-30.8 66-38.7 3.6-1.3 7.4-3 8.3-3.8 1-.9-.8-6.8-4.4-14.2-5.8-12-6.1-13.9-5.5-28.5.7-15 1.3-16.9 13.4-41.3 15.7-31.7 16.3-33.9 10.7-36.7-1.9-1-4.8-1.5-8.2-1.5Zm88.6 24.9c-7.9-.1-17.3 1.2-23.5 3.8-18.6 8-38 36.6-47.3 69.3l-5 17.9c-1 2.9-.4 3.2 3.4 2.2 2.4-.7 18.3-1.8 35.2-2.4 16.9-.6 30.7-1.4 30.7-1.7 0-.4-1.8-5.8-4-12-6.5-18.4-4.8-26 11.2-50.4a183.8 183.8 0 0 0 13.6-22.5c0-2.7-6.4-4.2-14.3-4.2zm-35.8 120.3c-45.1 0-76.8 11-110.5 38.3a188.2 188.2 0 0 0-54.3 83.2c-5 17.2-5 65.4 0 79.4 16.6 46.2 57.4 79 107.5 86.4 32.2 4.8 74.9-3 109.3-19.6l7.2-3.6-4.7-17.6a3529 3529 0 0 0-6.4-24.3l-1.8-6.6-14.4 6.3a133.7 133.7 0 0 1-63.8 12.9c-13.8-.6-22.2-2-30-4.9a75.6 75.6 0 0 1-38-33.9c-16.5-35.4-7.2-83.4 22-112.7 34.6-34.6 79-41 127.7-18.6a75.7 75.7 0 0 0 19.3 7.1c1.9-1 26.4-41.9 26.4-43.9 0-1.7-18-11.9-29.2-16.4a159.7 159.7 0 0 0-66.3-11.5zm-4.7 92.7V272h-36V302.8h36v34.3h32.1v-34.3h34V272.1h-34V238h-16zm121 0V272h-36V302.8h36v34.3H315v-34.3h36V272.1h-36V238h-15z"/></svg>