<svg xmlns="http://www.w3.org/2000/svg" width="556" height="557.3" viewBox="0 0 417 418"><path d="m203.2.5-7.7.1a239.5 239.5 0 0 0-56 11.9 214.6 214.6 0 0 1-8.7 3.2c-3.3 1-1.8 1.9 6.5 4 4.5 1.1 16.8 4.4 27.2 7.3l26.5 7 24.5 6.5 35 9.5 28 7.5 30 7.9L329 71c12.3 3.6 44 12 45.3 12 2.5 0-16.6-20.9-28.6-31.3A209.6 209.6 0 0 0 214.5.6L203.2.5zm-93.7 26.8c-1.1-.2-4.8 1.3-8.7 3.5a304.1 304.1 0 0 0-28 20.1 263 263 0 0 0-28 29.9 79.5 79.5 0 0 0-6.7 9.5c.4.4 8.2 2.5 19.9 5.6l15 4c4.1 1.2 15.2 4.2 24.5 6.6l27.5 7.4 30 8 30.5 8.2L215 138l46.5 12.5 16.5 4.4 41 11c4.1 1.2 12 3.3 17.5 4.6l17 4.5c8.5 2.5 25 6.9 45 12 8.3 2.1 15.9 4.2 16.9 4.6 1.6.6 1.7.2 1.1-5.2-.7-6-3-17.7-6.1-31.6-1.9-8.4-2.1-8.7-11.4-10.8-2.5-.5-7.6-1.9-11.5-2.9L337 127.5l-29.5-7.9-31.7-8.6c-2.7-.7-4.8-1.5-4.8-1.9 0-2.5 19.4-22.3 26.3-26.9 2-1.3 3.7-2.8 3.7-3.3 0-.4-1.9-1.2-4.2-1.7a1341 1341 0 0 1-36.3-9.7L239 61.8 217 56l-29.5-7.9-32-8.6-46-12.2zM31.1 104c-1.1 0-2.8 1.5-4.1 3.5-6.2 10-16.2 34.6-19.4 47.5-2.1 8.5-4.6 20.8-4.6 22.4 0 .8 1.9 1.8 4.3 2.5l61.9 16.6 21 5.5c10.8 2.7 30.3 8 50.8 13.7l13 3.4c1.9.4 8.2 2 14 3.7l26 7.1 23 6.1 24.5 6.6 44 11.9 17 4.5c6.1 1.5 19.6 5.1 30 8l30 8 17 4.5 14.7 3.9 8.7 2.2 1-2.6c3.7-9.7 5.4-15.3 7.1-23.3l2.5-11.3c.6-2.5-.3-2.9-23.5-8.8l-25-6.6-13-3.6a578 578 0 0 0-18.5-4.9l-19-5-67.5-18.1a146.5 146.5 0 0 1-28.7-8.9c-.5-1.6 3.2-8.8 12.7-24.2 2.7-4.6 5-8.7 5-9.2s-1.9-1.4-4.3-1.9c-5.7-1.3-30.2-7.7-40.7-10.6L144.5 134l-11-3-16.5-4.3L69.5 114a523 523 0 0 0-38.4-10zM1.9 193.4c-.7.3-1 2-1.4 6.2-1.5 14 1.1 38.9 6.4 59.9 4.5 18.1 4.9 18.8 11.8 20.8L62 292l37.5 10 16.5 4.4 28.5 7.6 28.5 7.6 22 5.9c4.7 1.4 17.1 4.7 27.5 7.5l52.5 14.1 24 6.4 29.1 7.7c11.6 3.1 16.9 4.1 17.6 3.4a270.6 270.6 0 0 0 24.6-25.6c5.2-6.5 5.7-7.5 4.1-8.1a990.5 990.5 0 0 0-52.7-14.4c-3.7-.9-8.6-2.3-11-3.1-2.3-.8-7.1-2.2-10.7-3-3.6-.7-9.6-2.3-13.5-3.4a1379 1379 0 0 0-22-6l-30-8-29.9-8c-8.1-2.1-14.9-4-15.1-4.2-.2-.3 3.9-18.6 7.3-32.6.7-3.2.7-4.4-.1-4.7l-15.2-4c-7.7-2-15.8-4.3-18-5s-7.1-2.1-11-2.9c-8.5-2-17-4.2-25-6.7a365 365 0 0 0-14-3.8l-59-15.7L23 199a439.6 439.6 0 0 1-21-5.6zm18.6 102.7c-.3 0-.5.1-.5.3 0 1 4 8.8 7.8 15.3 2.3 3.9 4.2 7.4 4.2 7.8 0 2.1 21.4 28.6 29.6 36.7 12.2 12 12.5 12.3 24.9 21.3a246 246 0 0 0 43.5 24.6l11 3.8a207.2 207.2 0 0 0 103.3 8.7c12.9-2.3 37.7-9.2 37.7-10.6 0-.3-7.3-2.4-16.2-4.8l-59.3-15.8-17.1-4.5c-4.9-1.2-5.1-1.7-5.9-19.9-.9-17.8-1.2-19.7-3.8-20.4l-15.2-4.2-28-7.5-27.5-7.3-28-7.6-34-9-21.3-5.9c-2.1-.8-4.3-1.2-5.2-1z"/></svg>