<svg xmlns="http://www.w3.org/2000/svg" width="734.2" height="756.9"><path d="m357 52.3-73.3 52.3-55.8 143-54.6 143.1c1.1.3 425.3-132 426.2-133C600.2 257 432.6 0 431.5 0c-.6 0-34.1 23.5-74.5 52.3m181.7 32.5L528.4 93c-.6.7 99.3 157 102.4 160 1.9 1.9 79.7 35.1 81.1 34.7 1.2-.4-160.6-210.3-162.3-210.5a55 55 0 0 0-10.9 7.5M57.4 240 .1 314.8c-1.1 1.7 3.9 4.7 68.9 40l71.1 38c1.1-.5 73-183.9 72.5-185.2-.3-.9-96.3-40.6-98.2-40.6-.5 0-26.2 32.8-57 73M626 291.2l-91.4 199.2-88 193.4c.2.3.6.3.8 0l144-177.8 143-178c-1-.8-103.9-43-104.9-43-.3 0-1.9 2.8-3.5 6.2m-243 63.5-211.8 65.8c-.5.4 206.2 336.4 207 336.4.7 0 217.2-467 216.7-467.4-.2-.1-95.6 29.2-211.9 65.2M40 371.4c0 .8 221.6 257.2 223 258 .6.4 1 .4 1 .1C264 629 141.8 430 139 426c-1.2-1.6-18.5-11.6-48.2-27.6L40 371.4"/></svg>