<svg xmlns="http://www.w3.org/2000/svg" xmlns:xlink="http://www.w3.org/1999/xlink" height="406" width="329.8"><defs><linearGradient id="a"><stop offset="0" style="stop-color:#c2c2c2;stop-opacity:1"/><stop offset="1" style="stop-color:#9f9f9f;stop-opacity:1"/></linearGradient><linearGradient gradientTransform="translate(-45.3 .4)" gradientUnits="userSpaceOnUse" y2="108.8" x2="658.5" y1="6.6" x1="660.1" id="b" xlink:href="#a"/></defs><g transform="translate(-399.1 -122.8)"><rect ry="7" y="122.8" x="399.1" height="406" width="329.8" style="fill:#eee;fill-opacity:1;fill-rule:nonzero;stroke:none;stroke-width:1.59331;stroke-linecap:round;stroke-linejoin:round;stroke-miterlimit:4;stroke-dasharray:none;stroke-opacity:1"/><g transform="translate(43.8 191)"><rect style="fill:#9f9f9f;fill-opacity:1;fill-rule:nonzero;stroke:none;stroke-width:2.2995;stroke-linecap:round;stroke-linejoin:round;stroke-miterlimit:4;stroke-dasharray:none;stroke-opacity:1" width="82.5" height="90.5" x="398.8" y="178.7" ry="8.4" transform="rotate(-16.3)"/><g transform="rotate(16.3 538.1 -184.9)"><rect ry="4.6" y="1.6" x="547.2" height="116" width="107.8" style="fill:url(#b);fill-opacity:1;fill-rule:nonzero;stroke:#fff;stroke-width:5.398;stroke-linecap:round;stroke-linejoin:round;stroke-miterlimit:4;stroke-dasharray:none"/><g style="stroke:#fff;stroke-width:13.0708;stroke-miterlimit:4;stroke-dasharray:none;stroke-opacity:1"><path style="color:#000;clip-rule:nonzero;display:inline;overflow:visible;visibility:visible;opacity:1;isolation:auto;mix-blend-mode:normal;color-interpolation:sRGB;color-interpolation-filters:linearRGB;solid-color:#000;solid-opacity:1;fill:#ccc;fill-opacity:1;fill-rule:evenodd;stroke:#fff;stroke-width:13.0708;stroke-linecap:round;stroke-linejoin:round;stroke-miterlimit:4;stroke-dasharray:none;stroke-dashoffset:0;stroke-opacity:1;marker:none;color-rendering:auto;image-rendering:auto;shape-rendering:auto;text-rendering:auto;enable-background:accumulate" d="M270 107.4H761.1V557.4H270z" transform="matrix(.17265 0 0 .17265 512.5 -6.3)"/><path style="color:#000;clip-rule:nonzero;display:inline;overflow:visible;visibility:visible;opacity:1;isolation:auto;mix-blend-mode:normal;color-interpolation:sRGB;color-interpolation-filters:linearRGB;solid-color:#000;solid-opacity:1;fill:#fff;fill-opacity:1;fill-rule:evenodd;stroke:#fff;stroke-width:13.0708;stroke-linecap:round;stroke-linejoin:round;stroke-miterlimit:4;stroke-dasharray:none;stroke-dashoffset:0;stroke-opacity:1;marker:none;color-rendering:auto;image-rendering:auto;shape-rendering:auto;text-rendering:auto;enable-background:accumulate" d="M270 107.4H761.1V317.4H270z" transform="matrix(.17265 0 0 .17265 512.5 -6.3)"/><path style="color:#000;clip-rule:nonzero;display:inline;overflow:visible;visibility:visible;opacity:1;isolation:auto;mix-blend-mode:normal;color-interpolation:sRGB;color-interpolation-filters:linearRGB;solid-color:#000;solid-opacity:1;fill:#ccc;fill-opacity:1;fill-rule:evenodd;stroke:#fff;stroke-width:13.0708;stroke-linecap:round;stroke-linejoin:round;stroke-miterlimit:4;stroke-dasharray:none;stroke-dashoffset:0;stroke-opacity:1;marker:none;paint-order:stroke;color-rendering:auto;image-rendering:auto;shape-rendering:auto;text-rendering:auto;enable-background:accumulate" d="m300 317.4 38.5-53.6 60.5-45.1 15.9 18.5 13.6-38.6 8.2-3 13.3-28.2 180 180" transform="matrix(.17265 0 0 .17265 512.5 -6.3)"/><path style="color:#000;clip-rule:nonzero;display:inline;overflow:visible;visibility:visible;opacity:1;isolation:auto;mix-blend-mode:normal;color-interpolation:sRGB;color-interpolation-filters:linearRGB;solid-color:#000;solid-opacity:1;fill:#b3b3b3;fill-opacity:1;fill-rule:evenodd;stroke:#fff;stroke-width:13.0708;stroke-linecap:round;stroke-linejoin:round;stroke-miterlimit:4;stroke-dasharray:none;stroke-dashoffset:0;stroke-opacity:1;marker:none;paint-order:stroke;color-rendering:auto;image-rendering:auto;shape-rendering:auto;text-rendering:auto;enable-background:accumulate" d="M180 60a885.6 885.6 0 0 1 17.2 87.9l-22.1-7.2-46.1-29.4 5.3 46.4-1.6 24.8 10 30.4L216 201 300 180l-47.8-77.4-9.7 14.9-27.1-22.1Z" transform="matrix(.17265 0 0 .17265 512.5 -6.3) translate(270 107.4)"/><path d="m420 347.4 81.9-74.5 18.5-9.6 23.7-44.2 25.9-21.7 180 180" style="color:#000;clip-rule:nonzero;display:inline;overflow:visible;visibility:visible;opacity:1;isolation:auto;mix-blend-mode:normal;color-interpolation:sRGB;color-interpolation-filters:linearRGB;solid-color:#000;solid-opacity:1;fill:#ccc;fill-opacity:1;fill-rule:evenodd;stroke:#fff;stroke-width:13.0708;stroke-linecap:round;stroke-linejoin:round;stroke-miterlimit:4;stroke-dasharray:none;stroke-dashoffset:0;stroke-opacity:1;marker:none;paint-order:stroke;color-rendering:auto;image-rendering:auto;shape-rendering:auto;text-rendering:auto;enable-background:accumulate" transform="matrix(.17265 0 0 .17265 512.5 -6.3)"/><path style="color:#000;clip-rule:nonzero;display:inline;overflow:visible;visibility:visible;opacity:1;isolation:auto;mix-blend-mode:normal;color-interpolation:sRGB;color-interpolation-filters:linearRGB;solid-color:#000;solid-opacity:1;fill:#b3b3b3;fill-opacity:1;fill-rule:evenodd;stroke:#fff;stroke-width:13.0708;stroke-linecap:round;stroke-linejoin:round;stroke-miterlimit:4;stroke-dasharray:none;stroke-dashoffset:0;stroke-opacity:1;marker:none;paint-order:stroke;color-rendering:auto;image-rendering:auto;shape-rendering:auto;text-rendering:auto;enable-background:accumulate" d="m570 197.4 36 80.9v60.2l22.4 19.5a81.6 81.6 0 0 1 22.4-15.7c14.9-7 31.4-9.4 47.2-13.7a52 52 0 0 0 18.2-7.8c1.4-1 2.6-2.2 3.8-3.4h-30l-40.5-40.6-29.9-49-10.2 9z" transform="matrix(.17265 0 0 .17265 512.5 -6.3)"/><path style="color:#000;clip-rule:nonzero;display:inline;overflow:visible;visibility:visible;opacity:1;isolation:auto;mix-blend-mode:normal;color-interpolation:sRGB;color-interpolation-filters:linearRGB;solid-color:#000;solid-opacity:1;fill:#fff;fill-opacity:1;fill-rule:evenodd;stroke:#fff;stroke-width:13.0708;stroke-linecap:round;stroke-linejoin:round;stroke-miterlimit:4;stroke-dasharray:none;stroke-dashoffset:0;stroke-opacity:1;marker:none;paint-order:stroke;color-rendering:auto;image-rendering:auto;shape-rendering:auto;text-rendering:auto;enable-background:accumulate" d="M420 557.4c-.4-9.6-8.8-17.6 17.1-30.7 31.9-16 126-35.9 152.2-60 19.4-17.8-70.4-37.7-55-59 7-9.8 59-20 82.1-30.3 22-9.8 15.1-19.8 31.4-30 15.7-9.8 68.4-19.8 72.2-30-10.4 10.5-68.8 20.4-90 30-22.3 10-21.5 19.9-49.4 29.4-30.2 10.3-89.2 20.6-102.7 30.6-28.5 20.8 46.8 42.6 16.2 60-41.6 23.5-149.4 43.3-194.1 60-30.9 11.5-28.4 17.7-30 30" transform="matrix(.17265 0 0 .17265 512.5 -6.3)"/></g></g></g><text y="412.1" x="562" style="font-style:normal;font-weight:400;font-size:32px;line-height:1.25;font-family:sans-serif;fill:#767676;fill-opacity:1;stroke:none" xml:space="preserve"><tspan style="font-style:normal;font-variant:normal;font-weight:700;font-stretch:normal;font-size:32px;font-family:sans-serif;-inkscape-font-specification:'sans-serif Bold';text-align:center;text-anchor:middle" y="412.1" x="562">NO IMAGE</tspan><tspan style="font-style:normal;font-variant:normal;font-weight:700;font-stretch:normal;font-size:32px;font-family:sans-serif;-inkscape-font-specification:'sans-serif Bold';text-align:center;text-anchor:middle" y="452.1" x="562">AVAILABLE</tspan></text></g></svg>