<svg width="33" height="41" xmlns="http://www.w3.org/2000/svg"><path fill-rule="evenodd" clip-rule="evenodd" d="M5.9 32c-1.4-2.3-3-4.2-5-5.5-.6-.3-.8-1.2-.4-1.7C4.2 20.2 9.8 8 12.7 1.4c.5-1 2-.7 2 .4v17.6a4.5 4.5 0 0 0-2.3 6L6 31.9Zm1.4 2.7c.7 1.5 1.3 3.1 1.8 4.8.1.5.5.8 1 .8h12.8a1 1 0 0 0 1-.8c.5-1.7 1-3.3 1.7-4.8l-3.4-3.4-2.8 2.8a3 3 0 1 1-2.2-2l3-3-1.7-1.6a4.4 4.4 0 0 1-4 0l-7.2 7.2Zm19.8-2.8c1.4-2.2 3-4 5-5.4.6-.3.8-1.2.3-1.7C28.8 20.2 23.2 8 20.2 1.4c-.4-1-1.9-.7-1.9.4v17.6a4.5 4.5 0 0 1 2.2 6l6.6 6.5Z"/></svg>