<svg version="1.0" width="623.2" height="825.2" viewBox="0 0 467.4 618.9" preserveAspectRatio="xMidYMid" xmlns="http://www.w3.org/2000/svg"><g><path d="M2849 6312c-219-73-378-347-444-768-34-213-29-629 9-774l13-49-105-103c-143-140-201-210-265-320-85-145-143-312-167-477-20-135-8-404 23-522 34-129 78-237 138-337l50-83-50-117c-96-227-130-376-138-618-12-345 48-589 208-854l21-35-35-57c-43-72-100-243-122-368-26-149-31-393-11-523 10-59 22-121 28-138l10-29 177 2 176 3-1 40c0 22-11 76-23 120-42 149-26 433 34 610 13 39 51 120 84 179 33 60 63 122 67 138 10 46-4 109-34 154-15 22-46 69-69 103-171 254-206 664-88 1017 27 80 77 185 130 274 63 105 56 178-25 260-138 138-221 394-207 634 21 357 227 680 532 833 130 66 183 77 375 78 96 0 183 4 193 9s36 45 58 90c121 242 304 391 594 484 72 23 96 26 235 26 148 0 160-1 250-32 281-94 469-249 577-478 50-105 54-107 215-99 153 8 244-6 365-57 143-59 293-181 389-314 62-87 130-236 161-351 22-84 26-119 26-243s-4-159-26-242c-31-118-101-257-167-332-83-95-88-166-19-277 128-206 190-431 191-689 1-277-53-446-217-684-36-52-51-114-41-164 4-16 34-78 67-138 33-59 71-140 84-178 60-182 76-461 34-611-12-44-23-98-23-120l-1-40 176-3 177-2 11 31c46 134 52 474 11 683-25 129-78 281-121 351l-31 50 21 35c159 261 219 507 208 848-8 252-53 444-155 663l-40 86 31 49c59 94 119 235 150 352 29 112 31 126 31 317 1 224-9 294-70 472-19 55-34 106-34 113 0 21-109 198-159 257-26 32-98 107-159 167s-109 113-106 118c16 25 35 205 41 368 8 260-15 478-72 675-88 303-214 474-393 534-207 70-405-47-542-318-75-151-139-379-156-558l-7-72-99 50c-189 95-399 149-578 149-173 0-383-52-560-138-52-26-98-48-101-50-3-1-9 28-13 65-29 288-146 595-282 742-121 130-274 179-415 133zm153-374c119-127 208-471 208-804 0-85-4-112-20-144-17-34-25-40-53-40-51 0-267-30-326-45-30-8-56-13-58-12-1 2-7 67-14 145-16 215 7 467 62 657 39 133 121 275 159 275 7 0 25-14 42-32zm2529 1c124-133 208-558 179-909-6-74-13-136-15-138s-25 3-52 11c-39 12-122 24-352 50-7 1-22 18-33 37-18 32-19 50-15 200 8 255 53 468 132 635 34 71 93 145 115 145 7 0 25-14 41-31z" transform="matrix(.1 0 0 -.1 -188 632.9)"/><path d="M4115 3729c-390-29-735-284-824-609-26-93-28-244-5-334 38-149 171-324 306-404 85-50 204-99 288-117 99-22 453-32 584-16 350 41 626 253 700 538 20 78 21 240 1 318-36 140-144 303-266 401-218 174-474 247-784 223zm329-258c291-76 497-291 500-521 3-227-192-414-479-460-80-13-403-13-485 1-212 34-390 160-452 319-29 77-29 194 1 272 79 206 278 353 544 404 97 18 269 11 371-15z" transform="matrix(.1 0 0 -.1 -188 632.9)"/><path d="M4038 3151c-58-52-40-123 47-177 43-27 45-31 40-64-19-120-19-127 8-154 22-22 35-26 85-26 91 0 123 41 103 130-17 74-15 83 33 113 56 35 76 66 76 116 0 32-6 44-31 65-39 33-81 33-136 1l-43-24-42 24c-58 33-100 32-140-4zM2932 3664c-107-53-169-209-128-319 44-115 194-177 303-124 89 43 153 148 153 250 0 171-171 271-328 193zM5320 3675c-119-54-165-193-104-320 27-58 88-118 141-141 68-29 162-10 227 47 86 76 97 174 35 297-45 89-101 125-198 129-44 2-78-2-101-12z" transform="matrix(.1 0 0 -.1 -188 632.9)"/></g></svg>