<svg viewBox="0 0 320 320" xmlns="http://www.w3.org/2000/svg"><path d="M297 131a80.6 80.6 0 0 0-93.7-104.2 80.6 80.6 0 0 0-137 29A80.6 80.6 0 0 0 23 189a80.6 80.6 0 0 0 93.7 104.2 80.6 80.6 0 0 0 137-29A80.7 80.7 0 0 0 297.1 131zM176.9 299c-14 .1-27.6-4.8-38.4-13.8l1.9-1 63.7-36.9c3.3-1.8 5.3-5.3 5.2-9v-89.9l27 15.6c.3.1.4.4.5.7v74.4a60 60 0 0 1-60 60zM47.9 244a59.7 59.7 0 0 1-7.1-40.1l1.9 1.1 63.7 36.8c3.2 1.9 7.2 1.9 10.5 0l77.8-45V228c0 .3-.2.6-.4.8L129.9 266a60 60 0 0 1-82-22zM31.2 105c7-12.2 18-21.5 31.2-26.3v75.8c0 3.7 2 7.2 5.2 9l77.8 45-27 15.5a1 1 0 0 1-.9 0L53.1 187a60 60 0 0 1-22-82zm221.2 51.5-77.8-45 27-15.5a1 1 0 0 1 .9 0l64.4 37.1a60 60 0 0 1-9.3 108.2v-75.8c0-3.7-2-7.2-5.2-9zm26.8-40.4-1.9-1.1-63.7-36.8a10.4 10.4 0 0 0-10.5 0L125.4 123V92c0-.3 0-.6.3-.8L190.1 54a60 60 0 0 1 89.1 62.1zm-168.5 55.4-27-15.5a1 1 0 0 1-.4-.7V80.9a60 60 0 0 1 98.3-46.1l-1.9 1L116 72.8a10.3 10.3 0 0 0-5.2 9v89.8zm14.6-31.5 34.7-20 34.6 20v40L160 200l-34.7-20z"/></svg>