<svg xmlns="http://www.w3.org/2000/svg" xmlns:xlink="http://www.w3.org/1999/xlink" width="192" height="192" xml:space="preserve"><symbol id="c" viewBox="-96 -96 192 192"><g opacity=".4"><defs><path id="a" opacity=".4" d="M-96 96V-96H96V96H-96z"/></defs><clipPath id="b"><use xlink:href="#a" overflow="visible"/></clipPath><g clip-path="url(#b)"><path d="M95.8 95.8V-95.8H-95.8V95.8H95.8m.2.2H-96V-96H96V96z"/><circle fill="none" stroke="#000" stroke-width=".3" stroke-miterlimit="10" r="64"/></g><circle clip-path="url(#b)" fill="none" stroke="#000" stroke-width=".3" stroke-miterlimit="10" r="88"/><path clip-path="url(#b)" fill="none" stroke="#000" stroke-width=".3" stroke-miterlimit="10" d="M64 76H-64a12 12 0 0 1-12-12V-64a12 12 0 0 1 12-12H64a12 12 0 0 1 12 12V64a12 12 0 0 1-12 12z"/><path clip-path="url(#b)" fill="none" stroke="#000" stroke-width=".3" stroke-miterlimit="10" d="M52 88H-52a12 12 0 0 1-12-12V-76a12 12 0 0 1 12-12H52a12 12 0 0 1 12 12V76a12 12 0 0 1-12 12z"/><path clip-path="url(#b)" fill="none" stroke="#000" stroke-width=".3" stroke-miterlimit="10" d="M76 64H-76a12 12 0 0 1-12-12V-52a12 12 0 0 1 12-12H76a12 12 0 0 1 12 12V52a12 12 0 0 1-12 12z"/></g></symbol><path d="M96 182a12 12 0 0 0 12-12V66H84v104a12 12 0 0 0 12 12z"/><path d="M143.8 103.9A41.6 41.6 0 0 0 96 96l51.4 51.4a4 4 0 0 0 6.6-1.6 41.6 41.6 0 0 0-10.2-42zM48.2 103.9c13-13 32.3-15.6 47.8-7.9l-51.4 51.4a4 4 0 0 1-6.6-1.6 41.6 41.6 0 0 1 10.2-42z"/><path d="M140 64a46.5 46.5 0 0 0-44 32h81.2c3.4 0 5.6-3.5 4-6.5A46.4 46.4 0 0 0 140 64z"/><path d="M104.5 42.3A46.5 46.5 0 0 0 96 96l57.5-57.5a4.5 4.5 0 0 0-1.8-7.4 46.4 46.4 0 0 0-47.2 11.2z"/><path d="M87.5 42.3A46.5 46.5 0 0 1 96 96L38.5 38.5a4.5 4.5 0 0 1 1.8-7.4 46.4 46.4 0 0 1 47.2 11.2z"/><path d="M52 64a46.5 46.5 0 0 1 44 32H14.8a4.5 4.5 0 0 1-4-6.5A46.4 46.4 0 0 1 52 64z"/></svg>