<svg xmlns="http://www.w3.org/2000/svg" viewBox="83.3 83.3 333.4 333.4" width="333.4" height="333.4"><path d="M246.8 88.1a5719.7 5719.7 0 0 0-33.4 41.3 91.6 91.6 0 0 0-12.5 22l-.4-.1a27.3 27.3 0 0 1-2.6-.7l-1.9-.6c-3-.9-5.2-1.6-7.4-2.1s-4.3-.9-7-1.1c-2.7-.3-6-.4-10.4-.4l-17.6-.1H126V206l-1.5.1-1.5.2-1.4.2-1.5.1a74 74 0 0 0-16.4 3.6 145.2 145.2 0 0 0-20.4 8l.6 1.6a164.4 164.4 0 0 0 5 11.9 152.4 152.4 0 0 0 26.5 40.5c5.3 5.8 11 11 17 15.7a112.2 112.2 0 0 0 37.6 19.3 102.8 102.8 0 0 0 51.5 2.3 287.8 287.8 0 0 1 8-1.3c.1.1 0 .5-.4 1.2l-1.6 2.3a52.7 52.7 0 0 1-4.6 5.3 32 32 0 0 1-17.6 8.6c-2.5.4-5.2.7-8.1.9a74 74 0 0 0-10.3 1.2 44.2 44.2 0 0 0-15.8 6.6 45 45 0 0 0-16.2 23 64 64 0 0 0-2.1 9.8l-.5 1.4c-.3.4-.5.7-1 1l-1.5 1a25.9 25.9 0 0 0-12.4 23.6 24.4 24.4 0 0 0 6.7 15.1 26 26 0 0 0 13 7 17.4 17.4 0 0 0 10.1-.9 31.1 31.1 0 0 0 9.3-5.5 20 20 0 0 0 4-5.4 25.4 25.4 0 0 0 3-14c-.2-2.5-.6-5-1.5-7.3-.4-1.3-1-2.5-1.9-3.8a27.7 27.7 0 0 0-10.2-9.3l-2.6-1.4a3 3 0 0 1-1.2-1.3c-.2-.4-.3-1-.2-1.8l.7-3a30.1 30.1 0 0 1 20-21.3l1.8-.4a58 58 0 0 1 9.9-1 108 108 0 0 0 14-2 37.3 37.3 0 0 0 10.3-4.3 56.5 56.5 0 0 0 9.1-6.9 49 49 0 0 0 8-9.8l.9-1.2.8-1.3.9-1.2.9-1.3V369l-1.2.7-1 .8-1.2.8-1 .8a34 34 0 0 0-4.4 3.5 20.5 20.5 0 0 0-5.2 8.2c-.6 1.7-1 3.5-1.3 5.6-.4 2.4-.4 5 0 7.4a25 25 0 0 0 6.8 13.2A21.7 21.7 0 0 0 261 414a25 25 0 0 0 10.4-11.6c.5-1.3.8-2.7 1-4.3a48 48 0 0 0-.5-13.6 33 33 0 0 0-3-5.8 22.3 22.3 0 0 0-8.9-7.7l-1-.5-.9-.5-1-.5-1-.4v-28.8a1612.4 1612.4 0 0 1 .5-28.3l.5.6a132.5 132.5 0 0 1 2 3l1.2 1.8a73.6 73.6 0 0 0 6 7.8 39.6 39.6 0 0 0 6.9 5.9 56.2 56.2 0 0 0 12.3 6.4c2.1.7 4.4 1.2 7 1.6a92.7 92.7 0 0 0 12 1.1 153.9 153.9 0 0 1 7.7 1c2.7.6 5.3 1.8 7.7 3.3a31.2 31.2 0 0 1 11.2 12.7 24 24 0 0 1 2.2 7.8l.1 1 .1.9v.9l.2.9-.8.4-.7.4-.8.4-.7.4a27.1 27.1 0 0 0-6 4.3 23 23 0 0 0-6.8 12.2 28.3 28.3 0 0 0 1.3 15.3 23.3 23.3 0 0 0 17.5 14.3c3.7.8 7.3.4 10.7-.8a26 26 0 0 0 15-15.4 22.5 22.5 0 0 0-.5-16.7 26.6 26.6 0 0 0-13.4-14.3 22.8 22.8 0 0 1-1.2-1l-.2-.5-.3-1.1-.3-1.5c0-.6-.2-1.2-.3-1.7a48.1 48.1 0 0 0-4.5-13.6 39 39 0 0 0-30.4-22 95.8 95.8 0 0 0-10.8-1.2 150.8 150.8 0 0 1-8.4-1.1 30.7 30.7 0 0 1-8.3-3.3 35 35 0 0 1-13.2-12.8c-.3-.5-.4-.9-.2-1a40.2 40.2 0 0 1 5.5.7 204.6 204.6 0 0 1 8.3 1.5 57.5 57.5 0 0 0 9.2.7 367 367 0 0 0 21.8-.5 56.7 56.7 0 0 0 12.4-2.6 121.1 121.1 0 0 0 41.6-21 130.8 130.8 0 0 0 21.2-20.7 138.2 138.2 0 0 0 21.2-34.2 253.4 253.4 0 0 0 4.4-10.3l.8-2.7v-1.1a142.6 142.6 0 0 0-37-11.5l-1-.2h-.9l-.9-.2h-.9v-60h-13.6l-6.9.1h-24.2l-10.5.5a55.3 55.3 0 0 0-14.8 3 88.6 88.6 0 0 1-4.8 1l-.3-.5a171.6 171.6 0 0 1-2.8-5.8c-1.3-2.6-2.2-4.6-3.3-6.5a59 59 0 0 0-3.9-6.1c-1.7-2.4-4-5.3-7.2-9.3l-13-16A3637.9 3637.9 0 0 0 252 84.3l-1-1-.5.4a31.6 31.6 0 0 0-2.3 2.6l-1.5 1.8m19.6 33.5a462.6 462.6 0 0 1 16.9 22.3c1.8 2.8 3.2 5.2 4.2 7.3a20.8 20.8 0 0 1 2 6.4l-.3.8-.8.7-1.3 1a98.8 98.8 0 0 0-35.5 69.1c0 1.8 0 3-.2 3.9 0 .8-.2 1.1-.4 1a78.3 78.3 0 0 1-1.6-6.8 227.2 227.2 0 0 0-6.8-27.8 77 77 0 0 0-4.7-10.3 138.8 138.8 0 0 0-5.9-10 132.4 132.4 0 0 0-19.4-20.9l-.3-.5.7-2.2a79.4 79.4 0 0 1 6.4-12.4 88.8 88.8 0 0 1 7.7-10.8 580.4 580.4 0 0 1 7-8.3l3-3.8 3.4-4.1 3.2-4 1.9-2.2 1.8-2.3 1.9-2.2 1.8-2.3.4.4.3.3.3.4.3.3a70 70 0 0 1 4.7 5.6 2469.7 2469.7 0 0 1 9.3 11.4M184 160.4a64.6 64.6 0 0 1 12 4l.3.6v1.3l-.3 2.3a149 149 0 0 1-1.2 7.8 62.9 62.9 0 0 0-.6 9 362 362 0 0 0 .2 18.6 47 47 0 0 0 1.3 8.2 306 306 0 0 0 3.5 15.7l-.5-.2a41.8 41.8 0 0 1-3.2-1.9 181.2 181.2 0 0 1-8-4.7 123 123 0 0 0-29.9-12 101 101 0 0 0-14-2.6l-1.2-.1h-1.2l-1.2-.2H139v-47h20a1149.1 1149.1 0 0 1 17.5.2 52.4 52.4 0 0 1 7.6 1M364.3 182a1133.2 1133.2 0 0 1-.3 21.6l-.3 1.7-.8.2a50 50 0 0 1-7 1 91.4 91.4 0 0 0-20 4.5 152.3 152.3 0 0 0-20 8.3 332.7 332.7 0 0 0-10 5.8 21.3 21.3 0 0 1-2 .9v-.6a15.9 15.9 0 0 1 .4-2.9l.5-2a352.8 352.8 0 0 0 2.6-13l.4-5.5a373.7 373.7 0 0 0 0-23.8l-.7-4.2-.9-5.9c-.2-1.4-.2-2.4-.1-3a2 2 0 0 1 1-1.5l2-1a46.4 46.4 0 0 1 11.4-2.8c2.3-.3 5.2-.4 8.8-.5l13.8-.1h21.2V182m-69.6-6.8a99.1 99.1 0 0 1 1.6 16.4 79.4 79.4 0 0 1-1.9 17 120.3 120.3 0 0 1-4.7 17.2 84.8 84.8 0 0 1-14.9 25.2 255.7 255.7 0 0 1-8.6 10.2l-.8.7-.7.8-.7.7-.7.7v-9.4l.1-4.7v-4.7a991 991 0 0 1 .5-16.5 55.8 55.8 0 0 1 1-7.8 115.2 115.2 0 0 1 7-21.6 84 84 0 0 1 17.2-24.3l2.7-2.2c.7-.5 1.3-.8 1.6-.8.1 0 .2 0 .3.2l.4.7a9.4 9.4 0 0 1 .6 2.2m-80.3 2.6a76 76 0 0 1 17 28.2 126.9 126.9 0 0 1 4.6 16l.4 4 .3 6.3a1139 1139 0 0 1 0 28.5c-.1.4-.3.4-.5.3l-2-2.1a164 164 0 0 1-14.9-19.5 121 121 0 0 1-9-20.5 131.7 131.7 0 0 1-2-8c-.6-2.5-1-6.1-1.1-10.2a186.1 186.1 0 0 1 .4-23.6c.3-2.8.8-4.5 1.4-4.5l.6.4a29.2 29.2 0 0 1 2.8 2.7l2 2m147.9 44.7a72.9 72.9 0 0 1-8 26.3 95.5 95.5 0 0 1-5.4 9.7 59 59 0 0 1-7.6 9 99.3 99.3 0 0 1-8.4 8 50.8 50.8 0 0 1-9.4 6 48.5 48.5 0 0 1-24 5.6c-4 .2-8.4.3-13.9.3H270l.2-.4v-.3l.2-.3v-.3l1.5-3.2a126.4 126.4 0 0 1 9.8-15.8 126.8 126.8 0 0 1 35.2-33.2c6.7-4 13.6-7.4 20.8-9.8a92.7 92.7 0 0 1 23.6-4.7l.6-.1h.4l.2.2v.7a12.8 12.8 0 0 1-.1 2.3m-234.7 3.8a114.4 114.4 0 0 0 15.8 40.2 75.7 75.7 0 0 0 9.9 11.8 112.5 112.5 0 0 0 16.7 14.4l.3.4c-.2.1-1 0-2-.4a74.7 74.7 0 0 1-9.1-4c-1.7-.7-3.4-1.6-5-2.4a105.8 105.8 0 0 1-29.4-22.8 128.2 128.2 0 0 1-24.5-38.2l.4-.2a36.3 36.3 0 0 1 4.1-1.5 54.1 54.1 0 0 1 9.8-2.5 97.4 97.4 0 0 1 9.2-1.3H126.4l.3 1.6.3 1.6.3 1.7.3 1.6m22.8-5.4a86 86 0 0 1 23.6 7.8 114 114 0 0 1 26.6 17.7 198 198 0 0 1 14.5 15.4 133 133 0 0 1 14.8 24.3l.1.3.1.3.1.3.1.4H215c-5.3 0-9.7 0-13.3-.3-3.7-.1-6.7-.4-9.4-.9a40.8 40.8 0 0 1-14.5-5 56.6 56.6 0 0 1-16.7-13 75 75 0 0 1-16-26 113.2 113.2 0 0 1-4.5-14.7c-.4-2-.6-3.9-.6-5.3V221c0-.4.1-.6.2-.7.2-.2.3-.3.6-.3h2.3a65.7 65.7 0 0 1 7.3 1.1m236 .2a62.4 62.4 0 0 1 8.3 2.2 97.4 97.4 0 0 1 6 2l-.5 1.3a65.9 65.9 0 0 1-3.7 7.3l-2.6 4.8a129.2 129.2 0 0 1-47.1 47.6 99.6 99.6 0 0 1-13.5 5.7s0-.2.3-.4l1-1a56 56 0 0 1 3.5-2.8 90.6 90.6 0 0 0 33-47.3 88.8 88.8 0 0 0 3.3-13.4l.3-1.7.3-1.7.3-1.7.3-1.7h3.2a23.6 23.6 0 0 1 3.5.3 62.8 62.8 0 0 1 4.1.5m-220 162c1 .6 1.9 1.5 2.6 2.6a13.3 13.3 0 0 1 1.8 7.8 11.1 11.1 0 0 1-4.5 8 11 11 0 0 1-5 1.7c-1 0-2 0-2.8-.2a9.3 9.3 0 0 1-4.8-2.3 10 10 0 0 1-3.5-6 12.9 12.9 0 0 1 1-8 9.3 9.3 0 0 1 5.4-4.8 11.4 11.4 0 0 1 9.8 1.1m178.9-.6 1.6 1.2a17.3 17.3 0 0 1 3 3.7c.3.6.6 1.1.7 1.6l.1.8a18.1 18.1 0 0 1 0 3.9 10.6 10.6 0 0 1-6.7 9 9.9 9.9 0 0 1-10.8-2.2l-1.5-1.7a8.2 8.2 0 0 1-1.5-4 20.5 20.5 0 0 1 0-5.6 9.5 9.5 0 0 1 2-4.2l1.9-1.8a8 8 0 0 1 2.4-1.3 11.7 11.7 0 0 1 8.8.6m-88.8 1.4 1.6 1.7a18.7 18.7 0 0 1 2.6 5l.4 2c0 .8-.2 1.7-.6 2.7a16.4 16.4 0 0 1-5.8 7.3c-.9.5-1.8.8-2.9.9a10 10 0 0 1-6-1.2 9 9 0 0 1-2.4-2 12.3 12.3 0 0 1-3-9.5 13.2 13.2 0 0 1 2.6-5.8 6.7 6.7 0 0 1 4.6-2.5 18 18 0 0 1 7.9.7l1 .7" fill-rule="evenodd" style="stroke-opacity:0"/></svg>