<svg width="31.3" height="35.7" viewBox="0 0 8.3 9.4" xml:space="preserve" xmlns="http://www.w3.org/2000/svg"><g><path d="m14.3 8.4 2.2-.5c.5-.1.9-.4 1.1-.8l.5-.9.6.9c.2.4.6.7 1 .8l2.3.5-2.2.5c-.5.2-.9.5-1.1.9l-.5.8-.6-.8c-.2-.4-.6-.7-1-.9l-2.2-.5ZM14.3 2.2l2.2-.5c.5 0 .9-.4 1.1-.8l.5-.9.6.9c.2.4.6.7 1 .8l2.3.5-2.2.6c-.5 0-.9.4-1.1.8l-.5.9-.6-1c-.2-.3-.6-.6-1-.7l-2.2-.5Z" transform="matrix(.26458 0 0 .26458 -.7 0)"/><path d="M18.2 15.8c-.3-2-1.4-3.8-3.2-4.8-3.3-2-6-2.2-8.8-4.3L2.5 8.8l15.7 9 15.6-9-3.7-2c-2.7 2-5.5 2.2-8.7 4.2-1.8 1-3 2.8-3.2 4.8z" transform="matrix(.26458 0 0 .26458 -.7 0)"/><path d="M18.2 35.7c-.4 0-.7-.1-1-.3L2.4 26.9V8.8l14.6 8.4 1 .3c.4 0 .8 0 1.1-.3l14.6-8.4v18.1l-14.6 8.5c-.3.2-.7.3-1 .3z" transform="matrix(.26458 0 0 .26458 -.7 0)"/><path d="M18.2 35.7c.3 0 .7-.1 1-.3l14.6-8.5V8.8l-14.6 8.4c-.3.2-.7.3-1 .3" transform="matrix(.26458 0 0 .26458 -.7 0)"/><path d="M18.2 17.5c-.4 0-.7 0-1-.3L2.4 8.8v18.1l14.6 8.5 1 .3" transform="matrix(.26458 0 0 .26458 -.7 0)"/><path d="M18.2 17.5c-.4 0-.7 0-1-.3l-1.5-.8v18.1l1.4.9 1 .3c.4 0 .8-.1 1.1-.3l1.5-.9V16.4l-1.5.8c-.3.2-.7.3-1 .3zM9 5.3l2.2-.5c.5-.1.9-.4 1.1-.8l.5-.9.5.9c.3.4.7.7 1.1.8l2.2.5-2.2.5c-.4.2-.8.5-1 .9l-.6.8-.5-.8c-.2-.4-.6-.7-1.1-.9L9 5.3ZM19.7 5.3l2.2-.5c.4-.1.8-.4 1-.8l.6-.9.5.9c.2.4.6.7 1.1.8l2.2.5-2.2.5c-.5.2-.9.5-1.1.9l-.5.8-.5-.8c-.3-.4-.7-.7-1.1-.9l-2.2-.5Z" transform="matrix(.26458 0 0 .26458 -.7 0)"/></g></svg>