<svg version="1.0" xmlns="http://www.w3.org/2000/svg" width="234.7" height="234.7" viewBox="0 0 176 176"><path d="M19.7 9a27.5 27.5 0 0 0-4.3 10.7c-1.9 8.7-1.6 22.2 1.1 42.2 2.1 16.2 1.9 21.8-1 30.6a63 63 0 0 0 1.4 44.3 41 41 0 0 0 29.7 20.7 94.3 94.3 0 0 1 27 7.7c5.9 2.8 8 3.3 14.4 3.3 6.6 0 8.4-.4 15.4-3.8 5.3-2.5 11-4.3 17-5.3a66.6 66.6 0 0 0 24.1-7.4c15.8-9 22.5-28.2 18-51.5-.8-4.2-2.1-9-3-10.7-2-4.1-1.9-14.4.1-28.4.9-6 1.7-17.7 1.7-25.9.1-13.4-.1-15.6-2.1-20.6-3.1-7.7-5-9.3-10.4-8.5-8.4 1.3-18.3 8.9-31.9 24.3l-5.4 6.2L104 35a67 67 0 0 0-32.1 0l-7.4 2-5.4-6.3A95.5 95.5 0 0 0 34.7 9c-7.9-3.9-11.7-3.9-15 0zm112.1 89.7c.2 1.8-.5 5.2-1.6 7.6-2.5 5.5-6.1 7.3-17.1 8.3l-8.4.7.5-5.1c.7-7.4 4.5-11.4 13.8-14.6.8-.3 4-.4 7-.3 5.4.2 5.5.2 5.8 3.4zm-69.3-1.6c2.4.7 5.5 2.7 7.8 5.1 3.3 3.4 3.7 4.5 3.7 8.8 0 5.7.5 5.6-11.9 4-9.6-1.3-13.6-4.8-14.1-12.5-.5-6.4-.4-6.5 5.3-6.5 2.8 0 7 .5 9.2 1.1zm39.1 38.4c2.1 2.8 1.8 3.3-3.1 6.3-3.2 1.9-4.8 3.6-5.3 5.7-.6 2.3-1.4 3-3.2 3-1.8 0-2.6-.7-3.2-3.2-.6-2.4-1.9-3.8-4.8-5.3-3.1-1.6-4-2.6-4-4.6 0-3.4 2.7-4.2 13.4-4 7.3.2 9.1.6 10.2 2.1z"/></svg>