<svg version="1.0" xmlns="http://www.w3.org/2000/svg" width="1706.7" height="1622.7" viewBox="0 0 1280 1217"><path d="M770.4 1c-8.4 1.7-25.6 7.1-30.7 9.6-18.6 9.4-27.4 20.2-39.9 49.2-3.2 7.4-7.2 15.2-9 17.5-8 10-14.1 16.3-21.1 21.5a665 665 0 0 0-23.2 19.7c-22.8 20.3-32.4 26.8-49.1 33.1-16 6-43.6 9.2-89.9 10.4-42.8 1.1-47.8 1.5-58.5 5-49.9 16.3-106.1 52-154.3 97.9l-7.8 7.5-10-4.9a69.3 69.3 0 0 1-9.9-5.5c0-.3 3.5-4.6 7.7-9.5 13.1-15.4 28.7-37 38.7-53.7 7.7-13 9.6-16.8 9.6-20 0-3.6-.2-3.8-2.5-3.2-1.5.4-3.9 0-6-1-2.9-1.4-4.2-1.5-7.7-.5-14.7 3.9-40.5 23-70.5 52.3a197.4 197.4 0 0 1-14.3 13.2c0-.3 3.7-4.9 8.1-10.2 4.5-5.4 13.2-16.5 19.5-24.8 6.4-8.6 13.2-16.6 15.9-18.6 9.5-7.2 10.7-8.4 12.9-12.9 1.3-2.5 3.3-9.1 4.5-14.6 1.2-5.5 2.9-12 3.8-14.4 2.2-5.9 1.1-7.6-5.3-7.8a43 43 0 0 1-8-.8c-2.3-.5-4.4 0-8.5 2-7.8 3.9-26.4 23.2-44.1 45.5l-24.9 31.5a202.3 202.3 0 0 1-27.3 30.6c-5.7 4.6-9.1 5-10.8 1.4a50 50 0 0 1 4.2-25c1-1.1 3.5-6.5 5.4-12 1.9-5.5 6.9-18.2 11-28.3 4.2-10 7.5-18.6 7.4-19a18 18 0 0 1 1.1-4.6c1.4-3.9 1.2-11.3-.5-32.8l-.7-7.7-7.2-.6c-8-.8-9.9-.2-15.3 4.9-10.1 9.3-19.2 31.4-30.2 72.8-11 41.3-13.8 49.8-19.5 58.9A317 317 0 0 1 99 270.6c-20.6 23.5-33.8 41.2-62.8 84.4A228 228 0 0 0 .9 457c-1.6 17.1-.1 45.9 3.3 63.8.9 5 1.5 6.2 2.9 6 1.1-.2 3.1 1.9 6 6.2 6 8.8 10.5 11.8 20.5 13.4 14 2.2 18.9 1 46-11.8 4.9-2.4 13.1-6.8 18.2-9.9 5.1-3.1 9.2-5.1 9.2-4.4 0 .7-3.4 18.5-7.5 39.6l-7.4 38.3 4.1 6.7c2.3 3.6 5.3 8.2 6.7 10.1l2.5 3.5-3.3-3c-5.1-4.6-3.4-1.6 5.6 9.8a635.3 635.3 0 0 0 62.8 61.8c13 10.5 50.9 38.1 67 48.9 38.4 25.7 90.5 49.3 113.5 51.5 4.9.4 13.7 2.7 25.5 6.5a660.9 660.9 0 0 0 57.4 16.6c2.3.8-7.3 4.9-28.2 12-49.2 16.8-84 31.5-106.2 44.7-33 19.7-43.2 27.4-53.2 40.3-2.7 3.5-5.7 5.3-21 12.4a123.1 123.1 0 0 1-24.8 9.5c-11.8 2.1-18.6 6-22.1 12.7a36 36 0 0 0-.5 16.8c.4 1.5.1 4.3-1 7-1.9 5.1-1.6 7 1.1 7 1.4 0 2.1 1 2.5 3.7a37 37 0 0 0 1.8 6.3c2.1 4.3 17.9 19.3 25.7 24.3l20.5 13.3a360.1 360.1 0 0 0 77 36.7c5.5 1.9 16.3 6.2 24 9.4a534 534 0 0 0 27.5 10.7l26 9.3a416.7 416.7 0 0 0 72.1 17.2c27.1 4.7 30.1 5 35 4 3.6-.8 11.6-1 23.9-.6 27.6.8 38.6 4.1 58.4 17.2a300 300 0 0 1 22.2 16.9 461.9 461.9 0 0 0 38.4 29.3c14.3 9.6 58.4 35.6 65.9 39 4.2 1.9 8.7 4 10.1 4.8 1.4.7 4.1 1.6 6.2 2 4.5.9 9.3-2.3 10.7-6.9l1.6-4.9c.5-1.2.2-1.7-.8-1.7-.8 0-2.9-2.1-4.5-4.7-3-4.6-18.9-20.7-32.2-32.6l-6.5-5.9 6.3 4.7c3.4 2.6 11 9.2 16.8 14.7 9.3 8.9 12.9 11.1 12.9 8.2 0-.5.4-1.6.9-2.3.7-1.1-1.3-3.6-8.1-10-10.8-10.3-18.9-16.2-43.3-31.6-18.5-11.7-26.8-18.5-33.6-27.7-1.9-2.5-3.9-6-4.5-7.8-1-2.7-.9-3.4 1-5.4 2.7-2.8 10.8-4 38.6-5.7 21.9-1.3 119.3-.2 121.3 1.3 2.7 2.2 13.2-1.5 13.2-4.6 0-.8-1.6-3.3-3.5-5.6s-3.5-5-3.5-6c0-1.8-4.6-3.5-5.5-1.9-.3.4-3.1-.1-6.3-1.2-14.9-5.2-31.8-7.6-73.7-10.5a202.7 202.7 0 0 0-43.5-.1c-10.2 1-21.4 1.7-25 1.7-11.4 0-36-7-36-10.3 0-1.6 3.2-4.6 8-7.5a326 326 0 0 1 40.7-14.6 32 32 0 0 0 9-3.4c6-4.2 16.1-8.5 35.8-15.2 23.5-8 31.6-11.8 40.6-19 8.1-6.5 8.6-7.4 6.5-11.7a16 16 0 0 1-1.6-5.7v-2.3l-16.2.3c-12.9.1-19 .7-29.5 2.8a431.3 431.3 0 0 0-75.8 23.8 235 235 0 0 1-42.5 14.4 155.7 155.7 0 0 1-67.5 1l-5-1.3 2.8-1.2 3.2-1.1c1.2 0 34.5-14.3 47-20.2 33.2-15.7 50.6-26.6 67.5-42l7.3-6.7-1.2-5.5a24 24 0 0 0-2.9-7.6c-10.1-12.5-62.1 8.2-143.8 57.2-13.3 8-24.1 13.8-25.6 13.8-4.9 0-61.5-9.9-80.2-14-25.2-5.6-36.4-9.2-41.1-13.5-2-1.9-4.5-3.7-5.6-4-2.1-.7-2.4-3.2-.6-5.6 2.2-2.9 24.5-9.2 46.7-13.3l37-6.1c47.6-7.6 69.4-13.4 91.7-24.4a152.1 152.1 0 0 0 35.7-24.4c4.5-4 14-12 21.1-17.8 16.1-13.2 28-25.5 32.4-33.9 3.3-6.2 3.4-6.5 2.8-15.6-.5-8-1-10.2-3.8-15.5a81.7 81.7 0 0 0-18.6-20.6c-1.8-1.4-11.6-6.5-21.9-11.4-24.3-11.6-36-19.3-50.4-33.3a244.6 244.6 0 0 0-56.5-42.2 309.2 309.2 0 0 1-19.8-12.5l-4.7-3.8 4.2-.5 19.3-2.1c49.3-5.2 97.9-18 154.5-40.7 26.3-10.6 50-24.6 73.5-43.5a552.2 552.2 0 0 0 50.2-48.2 641.4 641.4 0 0 0 42.6-55.6c4-6.1 5.7-8 5.3-6-12.5 51.8-15.1 106-6.5 134.3 2.5 8 9.6 21.4 13.9 26.2 1.8 1.9 2.7 2.7 2 1.7-.7-.9-1-1.7-.8-1.7.3 0 4.3 2.5 8.9 5.5 17.1 11.3 41.2 16.1 102.9 20.6 45.1 3.2 47 3.3 73.4 1.4 27.1-1.9 41.5-1.7 54.1 1 11 2.3 11.8 2.9 7.2 5.1-4.1 2-4.3 2.3-2.4 4.7 1 1.4 1.8 1.4 5.3.5 3.4-.9 5.3-.8 10.5.6 9 2.5 32 11.8 47.9 19.3 23 11 43.1 19.9 53.5 23.8 12.4 4.6 31.2 9.5 38.5 9.9 3 .2 8.3.9 11.7 1.7 6.1 1.3 6.2 1.3 6.5 4.8.2 3 .7 3.7 2.8 3.9 5.1.8 17.4-5.4 17.8-8.9l.8-5.1c.5-2.8.1-4.6-1.6-7.2-8.2-13.4-46-33-101.4-52.7-14-5-17.3-6.5-15.5-7 9.6-2.8 46.1-15.1 58.4-19.6a512.6 512.6 0 0 0 93.8-44.2c11.4-5.5 20.8-17.8 19.3-25.1-.9-4.5-5.5-10-10.1-12.1-16.2-7.4-67.6 8.6-133 41.3-7.3 3.7-11.4 5.3-10.5 4.2.8-1.1 5.6-6.6 10.5-12.4l13.5-16a233 233 0 0 1 27.5-28c7.6-6.4 8.4-7.4 14.5-19.4 5.4-10.7 6.5-13.6 6.8-19 .6-8.7-.5-10.3-7.3-11.1-6.7-.9-10.6.5-21.9 7.6-21.9 13.9-55 41.8-103.5 87.3l-22.3 21-11.4-3.8c-6.3-2-11.4-3.9-11.4-4l3.1-7.2a2550.2 2550.2 0 0 0 19.4-45.9 95.3 95.3 0 0 0 5-17l3.6-18.3a101 101 0 0 0 1.9-12.8c0-4.5-2.3-10-4.8-11.3-3.2-1.7-9.2-1.3-12.7.9-11.1 6.9-30.2 42.8-48.9 91.8-2.2 5.6-3.2 7.2-4.5 6.8-5.3-1.7-27.5-6.8-38.6-9a237 237 0 0 0-50-6c-11.9-.3-20.9-1-24-1.9-10.7-3-20.9-10.4-16.4-11.9 1.6-.5-.5-4.5-4.3-8-3.2-3-3.3-4.6-1.4-14 2.5-11.8 6.5-19.1 29.6-54.8a175 175 0 0 0 11.8-21c1.6-4.1 5-12.5 7.6-18.5 8.4-20.4 9.7-32 5-45-4-11.2-4.1-10.5 2.7-15.5 8.5-6.3 37.8-36.5 47.5-49a604 604 0 0 0 35.4-52.6l17.2-27.8c4.9-7.6 10-16.6 11.4-20 2.8-6.6 5.5-12.1 28.1-56.6 21.8-43.1 28.9-62.7 32.3-89 .6-4.7 1.8-12.5 2.7-17.3 1.4-7.5 1.4-10.1.4-16.5a69.1 69.1 0 0 0-21-37.5c-2.8-2.6-5.1-5-5.1-5.2 0-.3 1.4-.5 3-.5 1.7 0 3-.3 3-.8-.1-2.2-13.6-10.1-28.9-16.7a176.6 176.6 0 0 0-46.6-15.3c-30.4-6.3-46.5-6.6-71.2-1.3-35.5 7.6-56 8-92.8 1.6-30.4-5.3-41-6.3-50.1-4.5zm294.1 151.6a197 197 0 0 1-6.7 18.4c-5.9 14-20 44.1-20.4 43.7a172 172 0 0 1 6.6-16.2 957.3 957.3 0 0 0 21-51.8c2.4-7.5 2-2.9-.5 5.9zM742 1075.4c9.2.8 18.7 2.3 21.5 3.2l5 1.8-3.5.7c-8.7 1.9-32.9 3.1-40.6 2.1-44.3-6-61.5-8.8-58.8-9.4a758 758 0 0 1 76.4 1.6z"/></svg>