<svg width="32" height="32" xmlns="http://www.w3.org/2000/svg"><g clip-path="url(#a)"><path d="M5.6 0A5.6 5.6 0 0 0 0 5.6v20.8c0 3 2.5 5.6 5.6 5.6h20.8c3 0 5.6-2.5 5.6-5.6V5.6c0-3-2.5-5.6-5.6-5.6H5.6zm4 4a5.6 5.6 0 0 1 5.7 5.6 5.6 5.6 0 0 1-5.7 5.7A5.6 5.6 0 0 1 4 9.6 5.6 5.6 0 0 1 9.6 4zm13.2 0a5.6 5.6 0 0 1 5.7 5.6 5.6 5.6 0 0 1-5.7 5.7 5.6 5.6 0 0 1-5.6-5.7A5.6 5.6 0 0 1 22.8 4zM9.6 17.2a5.6 5.6 0 0 1 5.7 5.6 5.6 5.6 0 0 1-5.7 5.7A5.6 5.6 0 0 1 4 22.8a5.6 5.6 0 0 1 5.6-5.6zm13.2 0a5.6 5.6 0 0 1 5.7 5.6 5.6 5.6 0 0 1-5.7 5.7 5.6 5.6 0 0 1-5.6-5.7 5.6 5.6 0 0 1 5.6-5.6z"/><circle cx="9.6" cy="9.6" r="5.6" opacity=".5"/></g><defs><clipPath id="a"><path d="M0 0H32V32H0z"/></clipPath></defs></svg>