<svg viewBox="0 0 21.8 24.8" xmlns="http://www.w3.org/2000/svg"><path d="M21.6 15a1 1 0 0 0-1.4-.3l-9.3 6.9v.2a1 1 0 1 1 0 2 1 1 0 0 0 .6-.2l9.9-7.3a1 1 0 0 0 .2-1.4zM10.9 23.8a1 1 0 1 1 0-2v-.3l-9.3-6.8a1 1 0 0 0-1.4.2 1 1 0 0 0 .2 1.4l9.9 7.3a1 1 0 0 0 .6.2z"/><path d="M10.9 20.8a2 2 0 1 0 2 2 2 2 0 0 0-2-2zm0 3a1 1 0 1 1 1-1 1 1 0 0 1-1 1zM2.9 4.5a1 1 0 0 1-1-1V1a1 1 0 1 1 2 0v2.5a1 1 0 0 1-1 1z"/><circle cx="2.9" cy="12.4" r="1"/><circle cx="2.9" cy="9.4" r="1"/><circle cx="2.9" cy="6.5" r="1"/><path d="M18.9 7.5a1 1 0 0 1-1-1V3.9a1 1 0 0 1 2 0v2.6a1 1 0 0 1-1 1z"/><circle cx="18.9" cy="12.4" r="1"/><circle cx="18.9" cy="9.4" r="1"/><circle cx="18.9" cy="1" r="1"/><path d="M10.9 16.4a1 1 0 0 1-1-1v-2.6a1 1 0 0 1 2 0v2.6a1 1 0 0 1-1 1z"/><circle cx="10.9" cy="18.3" r="1"/><circle cx="10.9" cy="9.9" r="1"/><circle cx="10.9" cy="6.9" r="1"/><path d="M14.9 10.4a1 1 0 0 1-1-1V7a1 1 0 1 1 2 0v2.5a1 1 0 0 1-1 1z"/><circle cx="14.9" cy="4" r="1"/><circle cx="14.9" cy="15.3" r="1"/><circle cx="14.9" cy="12.3" r="1"/><circle cx="6.9" cy="15.3" r="1"/><circle cx="6.9" cy="6.9" r="1"/><circle cx="6.9" cy="4" r="1"/><path d="M6.9 13.4a1 1 0 0 1-1-1V9.8a1 1 0 0 1 2 0v2.6a1 1 0 0 1-1 1z"/></svg>